<?xml version="1.0" encoding="UTF-8"?>
<svg xmlns="http://www.w3.org/2000/svg" version="1.1" viewBox="0 0 600 600">
  <!-- Generator: Adobe Illustrator 28.6.0, SVG Export Plug-In . SVG Version: 1.2.0 Build 709)  -->
  <g>
    <g id="Layer_1">
      <g id="layer1">
        <path id="path5" d="M600,113.9c-22.1,9.8-45.8,16.4-70.7,19.4,25.4-15.2,44.9-39.4,54.1-68.1-23.8,14.1-50.1,24.4-78.2,29.9-22.5-23.9-54.4-38.9-89.9-38.9-68,0-123.1,55.1-123.1,123.1s1.1,19,3.2,28.1c-102.3-5.1-193-54.1-253.7-128.6-10.6,18.2-16.7,39.3-16.7,61.9,0,42.7,21.7,80.4,54.8,102.5-20.2-.6-39.2-6.2-55.8-15.4,0,.5,0,1,0,1.5,0,59.6,42.4,109.4,98.7,120.7-10.3,2.8-21.2,4.3-32.4,4.3s-15.6-.8-23.2-2.2c15.7,48.9,61.1,84.5,115,85.5-42.1,33-95.2,52.7-152.9,52.7s-19.7-.6-29.4-1.7c54.5,34.9,119.2,55.3,188.7,55.3,226.4,0,350.2-187.6,350.2-350.2s-.1-10.6-.4-15.9c24-17.4,44.9-39,61.4-63.7h0Z"/>
      </g>
    </g>
  </g>
</svg>