<?xml version="1.0" encoding="UTF-8"?>
<svg xmlns="http://www.w3.org/2000/svg" version="1.1" viewBox="0 0 600 600">
  <defs>
    <style>
      .cls-1 {
        display: none;
      }
    </style>
  </defs>
  <!-- Generator: Adobe Illustrator 28.6.0, SVG Export Plug-In . SVG Version: 1.2.0 Build 709)  -->
  <g>
    <g id="Layer_1">
      <path class="cls-1" d="M135.7,79c66.5,49.9,138,151.1,164.3,205.5,26.3-54.3,97.8-155.5,164.3-205.5,48-36,125.7-63.9,125.7,24.8s-10.2,148.8-16.1,170.1c-20.7,74-96.1,92.9-163.2,81.4,117.3,20,147.1,86.1,82.7,152.2-122.4,125.6-175.9-31.5-189.6-71.8-2.5-7.4-3.7-10.8-3.7-7.9,0-2.9-1.2.5-3.7,7.9-13.7,40.3-67.2,197.4-189.6,71.8-64.4-66.1-34.6-132.3,82.7-152.2-67.1,11.4-142.6-7.4-163.2-81.4-6-21.3-16.1-152.4-16.1-170.1,0-88.7,77.7-60.8,125.7-24.8h0Z"/>
      <g id="Layer_1-2">
        <g id="Layer_1-3">
          <path d="M355.2,254.6L571.1,3.6h-51.2l-187.5,217.9L182.7,3.6H10l226.4,329.5L10,596.4h51.2l198-230.2,158.1,230.2h172.7l-234.9-341.8h0ZM285.1,336.1l-23-32.8L79.6,42.1h78.6l147.3,210.7,23,32.8,191.5,273.9h-78.6l-156.3-223.5h0s0,0,0,0Z"/>
        </g>
      </g>
      <path class="cls-1" d="M68,532c-16,0-29.6-5.7-41-17-11.4-11.4-17-25-17-41V126c0-16,5.7-29.6,17-41,11.4-11.4,25-17,41-17h464c16,0,29.6,5.7,41,17,11.4,11.4,17,25,17,41v348c0,16-5.7,29.6-17,41-11.4,11.4-25,17-41,17H68ZM300,329L68,184v290h464V184l-232,145ZM300,271l232-145H68l232,145ZM68,184v-58,348V184Z"/>
    </g>
  </g>
</svg>