<?xml version="1.0" encoding="UTF-8"?>
<svg xmlns="http://www.w3.org/2000/svg" version="1.1" viewBox="0 0 256 256">
  <!-- Generator: Adobe Illustrator 28.6.0, SVG Export Plug-In . SVG Version: 1.2.0 Build 709)  -->
  <g>
    <g id="Layer_1">
      <path d="M212.8,115.5c-2.6-16.8-7.1-31.5-12-43.9-.5-1.1-1.3-2.1-2.4-2.7-6.8-3.5-13.9-6.4-21.4-8.6-2.3-.7-4.8.4-6,2.5-4.4,8-8.2,15.9-11.4,23.4-.8,1.9-2.8,2.9-4.8,2.5-2.5-.5-5.1-.9-7.8-1.3-6.9-1-13.2-1.3-18.9-1.3h0c-5.7,0-12,.4-18.9,1.3-2.7.4-5.3.8-7.8,1.3-2,.4-4-.6-4.8-2.5-4.9-11.5-11.1-23.7-19-36.2-.6-1-1.3-2-1.9-3-2.1-3.3-7-3.1-8.9.3-8.6,15.3-18.9,38.4-23.5,68-3.9,25-2.5,46.6-.1,62.2.7,4.4,2.6,8.4,5.5,11.7,5.3,5.8,12.6,12.6,22.2,18.6,13.5,8.5,26.3,12.3,35.3,14.2,2,.4,3.5,2.2,3.5,4.3l-15.8,29.5h68.3l-15.8-29.5c0-2.1,1.5-3.9,3.5-4.3,9-1.9,21.9-5.7,35.3-14.2,9.6-6.1,16.9-12.8,22.2-18.6,3-3.2,4.9-7.3,5.5-11.7,2.4-15.6,3.8-37.2-.1-62.2ZM91.8,165.1c0,2.5-2.1,4.6-4.6,4.6s-4.6-2.1-4.6-4.6v-24.6c0-2.5,2.1-4.6,4.6-4.6s4.6,2.1,4.6,4.6v24.6ZM156.6,185.9c-3.1,4.1-7.2,6.5-11.9,6.9-.5,0-.9,0-1.4,0-6.2,0-11.9-3.3-15.3-5.8-3.7,2.7-10,6.3-16.7,5.7-4.7-.4-8.8-2.8-11.9-6.9-1.5-2-1.1-4.9.9-6.4,2-1.5,4.9-1.1,6.4.9,1.5,2,3.2,3.1,5.3,3.2,4.9.4,10.9-4.1,12.8-5.9,1.8-1.7,4.6-1.7,6.3,0,1.9,1.8,7.9,6.3,12.8,5.9,2.1-.2,3.7-1.2,5.3-3.2,1.5-2,4.4-2.4,6.4-.9,2,1.5,2.4,4.4.9,6.4ZM173.4,165.1c0,2.5-2.1,4.6-4.6,4.6s-4.6-2.1-4.6-4.6v-24.6c0-2.5,2.1-4.6,4.6-4.6s4.6,2.1,4.6,4.6v24.6Z"/>
    </g>
  </g>
</svg>