<?xml version="1.0" encoding="UTF-8"?>
<svg xmlns="http://www.w3.org/2000/svg" version="1.1" viewBox="0 0 739.6 605.3">
  <defs>
    <style>
      .cls-1 {
        fill: #fff;
      }

      .cls-2 {
        fill: #ff9800;
      }
    </style>
  </defs>
  <!-- Generator: Adobe Illustrator 28.6.0, SVG Export Plug-In . SVG Version: 1.2.0 Build 709)  -->
  <g>
    <g id="Layer_2">
      <g id="Layer_1-2">
        <g>
          <g>
            <polygon class="cls-2" points="369.9 344.9 219.1 194 369.9 43.1 502.7 175.9 545.8 175.9 369.9 0 176 194 369.9 388 545.5 212.4 502.4 212.4 369.9 344.9"/>
            <polygon class="cls-2" points="416.2 175.6 459.3 175.6 369.9 86.2 262.2 194 369.9 301.8 459.2 212.5 416.1 212.5 369.9 258.6 326.8 215.6 369.8 215.6 369.8 172.4 326.8 172.4 369.9 129.3 416.2 175.6"/>
          </g>
          <g>
            <path class="cls-1" d="M84.4,509.9c-5.5-3.1-10.8-4.6-15.9-4.6s-10.7,1.4-15.3,4.3c-4.6,2.9-8.1,6.9-10.8,12-2.7,5.1-3.9,10.8-3.9,17.2s1.3,12.1,3.9,17.2c2.7,5.1,6.2,9.1,10.8,12.1,4.6,2.9,9.7,4.4,15.3,4.4s9.9-1.3,15.4-4c5.5-2.6,10.3-6.2,14.7-10.8l21.6,23.1c-6.8,7.4-15.1,13.4-24.7,17.8-9.7,4.5-19.2,6.7-28.7,6.7s-24-2.8-34.1-8.5c-10.2-5.7-18.1-13.6-23.9-23.7C2.9,563,0,551.7,0,539.2s3-23.3,8.8-33.2c5.9-9.9,14-17.7,24.3-23.3,10.3-5.6,21.9-8.5,34.8-8.5s19,2,28.5,6.1c9.5,4.1,17.4,9.5,23.8,16.4l-21.6,25.7c-4-5.3-8.7-9.5-14.1-12.5h0Z"/>
            <path class="cls-1" d="M261.6,602.7l-7.4-20.2h-51l-7.6,20.2h-38.5l53.8-126.2h38.5l52,126.2h-40ZM213.7,555.2h30.6l-15.1-41.2-15.5,41.2h0Z"/>
            <path class="cls-1" d="M417.6,602.7l-16.7-34h-19.8v34h-37.5v-126.2h58.9c16.9,0,30,3.9,39.4,11.7,9.3,7.8,14,18.8,14,33.1s-1.9,17.2-5.5,24c-3.7,6.8-8.9,12.1-15.8,16.1l25.6,41.2h-42.5,0ZM381.1,539.9h21.4c5.6,0,10-1.5,13.1-4.5,3.1-3,4.6-7.3,4.6-13s-1.5-9.8-4.6-12.7c-3.1-2.9-7.4-4.4-13.1-4.4h-21.4v34.6h0Z"/>
            <path class="cls-1" d="M502.2,476.5h37.5v94.9h52.9v31.3h-90.4v-126.2h0Z"/>
            <path class="cls-1" d="M634.7,476.5h103.2v28.8h-65.7v19.8h59.6v28.8h-59.6v20h67.5v28.8h-105v-126.2h0Z"/>
          </g>
        </g>
      </g>
    </g>
  </g>
</svg>