<?xml version="1.0" encoding="UTF-8"?>
<svg id="Layer_2" xmlns="http://www.w3.org/2000/svg" viewBox="0 0 906.13 224.1">
  <defs>
    <style>
      .cls-1 {
        fill: #fff;
      }

      .cls-2 {
        fill: #ff9800;
      }
    </style>
  </defs>
  <g id="Layer_1-2" data-name="Layer_1">
    <g>
      <g>
        <polygon class="cls-2" points="112.04 199.21 24.89 112.06 112.04 24.9 188.72 101.59 213.61 101.59 112.04 0 0 112.06 112.04 224.1 213.48 122.67 188.58 122.67 112.04 199.21"/>
        <polygon class="cls-2" points="138.75 101.44 163.65 101.44 112.04 49.8 49.79 112.06 112.04 174.31 163.62 122.75 138.7 122.75 112.04 149.4 87.15 124.51 111.97 124.51 111.97 99.61 87.14 99.61 112.04 74.71 138.75 101.44"/>
      </g>
      <g>
        <path class="cls-1" d="M346.02,86.59c-4.67-2.64-9.21-3.92-13.62-3.92-4.81,0-9.18,1.23-13.08,3.68-3.9,2.46-6.97,5.87-9.25,10.25-2.27,4.35-3.36,9.27-3.36,14.68s1.1,10.36,3.36,14.72c2.28,4.36,5.35,7.79,9.25,10.31,3.9,2.5,8.27,3.76,13.08,3.76,4.11,0,8.49-1.12,13.17-3.38,4.67-2.25,8.84-5.35,12.53-9.23l18.46,19.71c-5.84,6.36-12.88,11.43-21.15,15.22-8.25,3.8-16.43,5.71-24.55,5.71-10.77,0-20.49-2.44-29.15-7.31-8.69-4.88-15.47-11.63-20.41-20.25-4.93-8.63-7.39-18.27-7.39-28.93s2.54-19.95,7.56-28.4c5.02-8.47,11.95-15.12,20.77-19.95,8.83-4.82,18.71-7.22,29.71-7.22,8.09,0,16.21,1.75,24.32,5.23,8.1,3.49,14.87,8.16,20.3,14.01l-18.46,22c-3.39-4.5-7.42-8.08-12.08-10.68Z"/>
        <path class="cls-1" d="M497.49,165.93l-6.31-17.23h-43.55l-6.47,17.23h-32.92l46-107.89h32.94l44.48,107.89h-34.17ZM456.56,125.31h26.16l-12.94-35.26-13.22,35.26Z"/>
        <path class="cls-1" d="M630.88,165.93l-14.31-29.09h-16.93v29.09h-32.01V58.04h50.32c14.47,0,25.69,3.34,33.64,10,7.95,6.66,11.92,16.11,11.92,28.33,0,7.9-1.58,14.75-4.7,20.55-3.12,5.8-7.61,10.38-13.46,13.78l21.86,35.24h-36.33ZM599.64,112.21h18.32c4.81,0,8.55-1.28,11.16-3.85,2.61-2.55,3.92-6.25,3.92-11.08s-1.31-8.33-3.92-10.85c-2.61-2.52-6.35-3.76-11.16-3.76h-18.32v29.54Z"/>
        <path class="cls-1" d="M703.17,58.04h32.02v81.12h45.25v26.77h-77.27V58.04Z"/>
        <path class="cls-1" d="M816.42,58.04h88.19v24.63h-56.18v16.93h50.95v24.62h-50.95v17.1h57.71v24.61h-89.71V58.04Z"/>
      </g>
    </g>
  </g>
</svg>