<?xml version="1.0" encoding="UTF-8"?>
<svg id="Layer_2" xmlns="http://www.w3.org/2000/svg" viewBox="0 0 739.6 671.04">
  <defs>
    <style>
      .cls-1 {
        fill: #fff;
      }

      .cls-2 {
        fill: #ff9800;
      }
    </style>
  </defs>
  <g id="Layer_1-2" data-name="Layer_1">
    <g>
      <g>
        <polygon class="cls-2" points="369.94 344.87 219.08 193.98 369.94 43.11 502.67 175.86 545.78 175.86 369.94 0 175.98 193.98 369.94 387.95 545.55 212.36 502.44 212.36 369.94 344.87"/>
        <polygon class="cls-2" points="416.19 175.59 459.29 175.59 369.94 86.22 262.16 193.98 369.94 301.75 459.21 212.49 416.08 212.49 369.94 258.62 326.84 215.54 369.83 215.54 369.83 172.43 326.84 172.43 369.94 129.32 416.19 175.59"/>
      </g>
      <g>
        <g>
          <path class="cls-1" d="M84.38,509.94c-5.46-3.08-10.78-4.6-15.95-4.6-5.63,0-10.74,1.44-15.3,4.3-4.56,2.89-8.15,6.88-10.81,11.99-2.65,5.09-3.94,10.84-3.94,17.19s1.29,12.12,3.94,17.21c2.65,5.1,6.24,9.12,10.81,12.06,4.56,2.93,9.67,4.39,15.3,4.39,4.8,0,9.94-1.31,15.4-3.96,5.46-2.63,10.34-6.26,14.68-10.8l21.59,23.06c-6.83,7.44-15.08,13.37-24.74,17.8-9.66,4.46-19.24,6.68-28.71,6.68-12.61,0-23.99-2.84-34.12-8.54-10.17-5.72-18.11-13.61-23.88-23.68-5.76-10.1-8.65-21.38-8.65-33.85s2.97-23.33,8.84-33.21c5.87-9.91,13.97-17.69,24.29-23.34,10.33-5.64,21.89-8.46,34.76-8.46,9.48,0,18.96,2.05,28.46,6.13,9.47,4.08,17.39,9.54,23.75,16.38l-21.59,25.75c-3.96-5.26-8.69-9.45-14.13-12.5Z"/>
          <path class="cls-1" d="M261.56,602.73l-7.38-20.15h-50.96l-7.55,20.15h-38.53l53.82-126.2h38.53l52.03,126.2h-39.96ZM213.67,555.23h30.6l-15.12-41.25-15.48,41.25Z"/>
          <path class="cls-1" d="M417.6,602.73l-16.74-34.03h-19.8v34.03h-37.46v-126.2h58.87c16.93,0,30.04,3.9,39.35,11.69,9.3,7.8,13.95,18.84,13.95,33.13,0,9.25-1.85,17.25-5.5,24.04-3.66,6.78-8.91,12.14-15.75,16.1l25.57,41.23h-42.5ZM381.06,539.9h21.41c5.63,0,10-1.49,13.06-4.51,3.06-2.98,4.59-7.31,4.59-12.96s-1.53-9.75-4.59-12.7c-3.06-2.93-7.43-4.39-13.06-4.39h-21.41v34.56Z"/>
          <path class="cls-1" d="M502.17,476.53h37.46v94.87h52.92v31.33h-90.37v-126.2Z"/>
          <path class="cls-1" d="M634.65,476.53h103.15v28.8h-65.72v19.81h59.61v28.8h-59.61v20h67.52v28.78h-104.95v-126.2Z"/>
        </g>
        <g>
          <path class="cls-1" d="M19.66,645.34c-1.5-.62-3.06-.94-4.68-.94-2.22,0-4.24.54-6.09,1.59-1.85,1.07-3.31,2.52-4.38,4.37-1.08,1.85-1.62,3.86-1.62,6.05s.54,4.19,1.62,6.03c1.07,1.83,2.54,3.29,4.38,4.37s3.87,1.62,6.09,1.62c1.58,0,3.13-.31,4.62-.93,1.52-.61,2.85-1.46,4.02-2.56l1.72,1.85c-1.43,1.31-3.05,2.34-4.88,3.12-1.84.77-3.71,1.15-5.62,1.15-2.7,0-5.19-.66-7.45-1.97-2.28-1.31-4.07-3.08-5.4-5.32-1.33-2.24-1.99-4.69-1.99-7.34s.68-5.08,2.01-7.3c1.34-2.22,3.14-3.96,5.43-5.28,2.28-1.3,4.79-1.95,7.49-1.95,1.94,0,3.81.37,5.62,1.1,1.8.73,3.39,1.73,4.75,3.01l-1.68,1.97c-1.15-1.12-2.47-2-3.97-2.62Z"/>
          <path class="cls-1" d="M53.55,666.04c1.59,1.64,3.81,2.46,6.66,2.46s5.04-.81,6.64-2.46c1.58-1.64,2.38-3.94,2.38-6.89v-17.05h2.83v17.05c0,3.72-1.04,6.64-3.13,8.74-2.1,2.1-5.01,3.16-8.71,3.16s-6.64-1.06-8.74-3.16c-2.11-2.1-3.15-5.02-3.15-8.74v-17.05h2.83v17.05c0,2.96.79,5.25,2.39,6.89Z"/>
          <path class="cls-1" d="M109.9,645.1c-1.39-.39-2.7-.6-3.94-.6-1.96,0-3.54.39-4.73,1.17-1.2.79-1.79,1.85-1.79,3.19,0,1.17.33,2.12.99,2.87.66.74,1.46,1.32,2.42,1.74.94.42,2.27.89,3.92,1.41,1.95.57,3.52,1.15,4.7,1.71,1.19.55,2.21,1.36,3.03,2.43s1.26,2.47,1.26,4.22c0,1.54-.43,2.89-1.3,4.06-.87,1.17-2.06,2.09-3.63,2.73-1.55.64-3.35.96-5.36.96s-3.95-.38-5.85-1.19c-1.89-.79-3.53-1.85-4.9-3.16l1.31-2.33c1.29,1.26,2.78,2.24,4.47,2.96,1.7.71,3.36,1.07,5,1.07,2.18,0,3.93-.45,5.21-1.34,1.28-.89,1.93-2.09,1.93-3.59,0-1.2-.33-2.19-.98-2.96-.66-.76-1.46-1.34-2.42-1.76-.96-.41-2.29-.89-4.01-1.44-1.95-.6-3.5-1.16-4.69-1.7-1.17-.54-2.17-1.32-3-2.38-.82-1.04-1.22-2.42-1.22-4.11,0-1.45.41-2.73,1.22-3.81.83-1.1,1.97-1.94,3.45-2.52,1.48-.59,3.18-.88,5.12-.88,1.55,0,3.12.21,4.7.69,1.57.47,2.96,1.08,4.16,1.85l-1.22,2.42c-1.17-.74-2.47-1.31-3.86-1.71Z"/>
          <path class="cls-1" d="M136.14,642.1h21.77v2.59h-9.48v26.1h-2.83v-26.1h-9.47v-2.59Z"/>
          <path class="cls-1" d="M198.12,643.83c2.28,1.31,4.09,3.06,5.43,5.28,1.34,2.21,2.01,4.65,2.01,7.3s-.67,5.1-2.01,7.34c-1.34,2.24-3.15,4.01-5.43,5.32-2.3,1.31-4.8,1.97-7.53,1.97s-5.23-.66-7.53-1.97c-2.28-1.31-4.09-3.08-5.43-5.32-1.34-2.24-2.01-4.69-2.01-7.34s.67-5.08,2.01-7.3c1.34-2.22,3.14-3.96,5.43-5.28,2.29-1.3,4.79-1.95,7.53-1.95s5.24.65,7.53,1.95ZM184.56,646.04c-1.86,1.06-3.34,2.51-4.44,4.35-1.09,1.82-1.64,3.83-1.64,6.02s.55,4.21,1.64,6.07c1.1,1.86,2.57,3.34,4.44,4.41,1.86,1.08,3.88,1.62,6.06,1.62s4.17-.53,6.01-1.62c1.83-1.07,3.31-2.55,4.41-4.41,1.08-1.86,1.63-3.89,1.63-6.07s-.55-4.2-1.63-6.02c-1.1-1.84-2.57-3.29-4.41-4.35-1.85-1.07-3.85-1.61-6.01-1.61s-4.2.54-6.06,1.61Z"/>
          <path class="cls-1" d="M229.22,642.1h3.52l11.24,21.53,11.12-21.53h3.52v28.69h-2.62l-.04-24.75-11.24,21.68h-1.56l-11.27-21.68v24.75h-2.66v-28.69Z"/>
          <path class="cls-1" d="M280.54,657.43h16.53v2.01h-16.53v-2.01Z"/>
          <path class="cls-1" d="M337.76,644c1.62,1.28,2.43,3.03,2.43,5.28,0,1.7-.46,3.12-1.41,4.25-.93,1.16-2.26,1.91-3.95,2.27,2.1.27,3.75,1.04,4.92,2.33,1.19,1.29,1.76,2.91,1.76,4.88,0,2.46-.9,4.37-2.74,5.75-1.84,1.36-4.37,2.04-7.63,2.04h-12.13v-28.69h12.01c2.87,0,5.11.64,6.74,1.9ZM335.61,653.42c1.12-.88,1.68-2.14,1.68-3.78s-.56-2.81-1.68-3.7c-1.12-.88-2.7-1.3-4.71-1.26h-9.06v10.08h9.06c2.01,0,3.59-.45,4.71-1.34ZM336.61,666.8c1.35-.98,2.03-2.33,2.03-4.08s-.69-3.07-2.05-4.03c-1.36-.96-3.26-1.44-5.69-1.44h-9.06v10.99h9.06c2.46,0,4.37-.48,5.72-1.45Z"/>
          <path class="cls-1" d="M370.47,666.04c1.61,1.64,3.82,2.46,6.66,2.46s5.06-.81,6.65-2.46c1.58-1.64,2.37-3.94,2.37-6.89v-17.05h2.83v17.05c0,3.72-1.04,6.64-3.13,8.74-2.09,2.1-4.99,3.16-8.71,3.16s-6.62-1.06-8.74-3.16c-2.09-2.1-3.15-5.02-3.15-8.74v-17.05h2.83v17.05c0,2.96.8,5.25,2.39,6.89Z"/>
          <path class="cls-1" d="M414.79,642.14h2.83v28.65h-2.83v-28.65Z"/>
          <path class="cls-1" d="M444.05,642.14h2.84v26.12h12.62v2.54h-15.46v-28.65Z"/>
          <path class="cls-1" d="M478.45,642.1h21.79v2.59h-9.48v26.1h-2.83v-26.1h-9.48v-2.59Z"/>
          <path class="cls-1" d="M570.21,670.79l-6.19-9.34c-.88.05-1.54.07-2,.07h-7.88v9.26h-2.83v-28.65h10.71c3.57,0,6.35.83,8.29,2.47,1.95,1.65,2.93,4,2.93,7.03,0,2.38-.57,4.37-1.72,5.95-1.15,1.59-2.79,2.7-4.92,3.33l6.88,9.87h-3.27ZM562.02,658.99c2.73,0,4.83-.62,6.31-1.87,1.46-1.24,2.22-3.05,2.22-5.39s-.75-4.05-2.22-5.25c-1.48-1.21-3.58-1.8-6.31-1.8h-7.88v14.31h7.88Z"/>
          <path class="cls-1" d="M598.38,642.14h2.83v28.65h-2.83v-28.65Z"/>
          <path class="cls-1" d="M646.66,644.02c2.25,1.25,4.02,3,5.32,5.19,1.3,2.2,1.95,4.62,1.95,7.27s-.65,5.07-1.95,7.26-3.08,3.91-5.35,5.16c-2.27,1.26-4.79,1.88-7.54,1.88h-11.44v-28.65h11.52c2.72,0,5.23.62,7.49,1.88ZM645.2,666.7c1.81-1.04,3.24-2.46,4.29-4.26,1.04-1.78,1.57-3.77,1.57-5.96s-.52-4.18-1.59-5.99c-1.07-1.8-2.51-3.22-4.34-4.25-1.81-1.05-3.81-1.55-6-1.55h-8.65v23.57h8.78c2.16,0,4.14-.52,5.94-1.55Z"/>
          <path class="cls-1" d="M677.59,642.14h19.18v2.55h-16.36v10.24h14.64v2.54h-14.64v10.79h16.89v2.54h-19.72v-28.65Z"/>
          <path class="cls-1" d="M733.73,645.1c-1.4-.39-2.71-.6-3.94-.6-1.97,0-3.55.39-4.74,1.17-1.19.79-1.78,1.85-1.78,3.19,0,1.17.32,2.12.98,2.87.66.74,1.47,1.32,2.42,1.74.96.42,2.27.89,3.94,1.41,1.94.57,3.5,1.15,4.69,1.71,1.2.55,2.2,1.36,3.05,2.43.83,1.07,1.24,2.47,1.24,4.22,0,1.54-.43,2.89-1.28,4.06-.87,1.17-2.08,2.09-3.63,2.73-1.57.64-3.35.96-5.38.96s-3.95-.38-5.84-1.19c-1.91-.79-3.54-1.85-4.9-3.16l1.31-2.33c1.29,1.26,2.77,2.24,4.47,2.96,1.7.71,3.35,1.07,5,1.07,2.19,0,3.92-.45,5.21-1.34,1.28-.89,1.93-2.09,1.93-3.59,0-1.2-.33-2.19-1-2.96-.66-.76-1.46-1.34-2.42-1.76-.96-.41-2.29-.89-4.01-1.44-1.95-.6-3.5-1.16-4.68-1.7-1.18-.54-2.18-1.32-2.99-2.38-.83-1.04-1.23-2.42-1.23-4.11,0-1.45.41-2.73,1.23-3.81.81-1.1,1.96-1.94,3.44-2.52,1.48-.59,3.19-.88,5.14-.88,1.55,0,3.11.21,4.69.69,1.58.47,2.96,1.08,4.16,1.85l-1.23,2.42c-1.17-.74-2.46-1.31-3.85-1.71Z"/>
        </g>
      </g>
    </g>
  </g>
</svg>