<?xml version="1.0" encoding="UTF-8"?>
<svg id="Layer_2" xmlns="http://www.w3.org/2000/svg" viewBox="0 0 739.6 605.26">
  <defs>
    <style>
      .cls-1 {
        fill: #fff;
      }

      .cls-2 {
        fill: #ff9800;
      }
    </style>
  </defs>
  <g id="Layer_1-2" data-name="Layer_1">
    <g>
      <g>
        <polygon class="cls-2" points="369.94 344.87 219.08 193.98 369.94 43.11 502.67 175.86 545.77 175.86 369.94 0 175.98 193.98 369.94 387.95 545.55 212.36 502.44 212.36 369.94 344.87"/>
        <polygon class="cls-2" points="416.19 175.59 459.29 175.59 369.94 86.22 262.16 193.98 369.94 301.76 459.21 212.49 416.08 212.49 369.94 258.62 326.84 215.55 369.83 215.55 369.83 172.44 326.84 172.44 369.94 129.32 416.19 175.59"/>
      </g>
      <g>
        <path class="cls-1" d="M84.38,509.94c-5.46-3.09-10.78-4.6-15.95-4.6-5.63,0-10.74,1.44-15.3,4.31-4.56,2.89-8.15,6.88-10.81,11.99-2.65,5.09-3.94,10.84-3.94,17.19s1.29,12.12,3.94,17.21c2.65,5.1,6.24,9.12,10.81,12.06,4.56,2.93,9.67,4.4,15.3,4.4,4.8,0,9.94-1.31,15.4-3.96,5.46-2.62,10.34-6.25,14.68-10.8l21.59,23.06c-6.83,7.44-15.08,13.36-24.74,17.8-9.66,4.46-19.24,6.68-28.71,6.68-12.61,0-23.99-2.84-34.12-8.54-10.17-5.72-18.1-13.61-23.87-23.68-5.76-10.11-8.65-21.38-8.65-33.85s2.97-23.33,8.84-33.21c5.87-9.91,13.97-17.7,24.29-23.34,10.33-5.64,21.89-8.46,34.76-8.46,9.48,0,18.96,2.05,28.46,6.13,9.47,4.08,17.39,9.54,23.75,16.38l-21.59,25.75c-3.96-5.26-8.69-9.46-14.13-12.5Z"/>
        <path class="cls-1" d="M261.56,602.73l-7.38-20.15h-50.96l-7.55,20.15h-38.52l53.82-126.2h38.52l52.03,126.2h-39.96ZM213.67,555.23h30.6l-15.12-41.25-15.48,41.25Z"/>
        <path class="cls-1" d="M417.6,602.73l-16.74-34.03h-19.8v34.03h-37.46v-126.2h58.87c16.93,0,30.04,3.9,39.35,11.7,9.3,7.79,13.95,18.84,13.95,33.13,0,9.25-1.85,17.25-5.5,24.04-3.66,6.78-8.91,12.14-15.75,16.1l25.57,41.23h-42.5ZM381.06,539.9h21.41c5.63,0,10-1.49,13.06-4.51,3.06-2.98,4.59-7.31,4.59-12.95s-1.53-9.75-4.59-12.7c-3.06-2.93-7.43-4.4-13.06-4.4h-21.41v34.57Z"/>
        <path class="cls-1" d="M502.17,476.54h37.46v94.87h52.92v31.33h-90.37v-126.2Z"/>
        <path class="cls-1" d="M634.65,476.54h103.15v28.8h-65.72v19.81h59.61v28.8h-59.61v20h67.52v28.78h-104.95v-126.2Z"/>
      </g>
    </g>
  </g>
</svg>