<?xml version="1.0" encoding="UTF-8"?>
<svg xmlns="http://www.w3.org/2000/svg" version="1.1" viewBox="0 0 302.4 275">
  <defs>
    <style>
      .cls-1 {
        opacity: .2;
      }
    </style>
  </defs>
  <!-- Generator: Adobe Illustrator 28.6.0, SVG Export Plug-In . SVG Version: 1.2.0 Build 709)  -->
  <g>
    <g id="Layer_2">
      <path class="cls-1" d="M112.9,28.5c3.7,4.5,3.8,8.9,4.6,15.9-2.8,1.6-1.3,5.3-2.8,8.6-.4-2.6,0-5.4-.3-8.6-.7-.1.2,1.4-.9.9,2.2-4.7,1-12.4-.6-16.8ZM115,29.7c.9,0,1.7-.1,2.1-.6-.9-.3-1.8-.6-2.4-1.2-.2.9.3,1.1.3,1.8ZM117.2,89.5c-.4-3.3-.7-6.6-1.5-9.5.3,3.4.6,6.8,1.5,9.5ZM116.5,244.2c0,1.6-.9,3.8,0,5.2.1-1.7.9-4.3,0-5.2ZM117.8,95c0-1.6,0-3.1-.6-4,.2,1.4.1,2.9.6,4ZM118.4,221.8c0-.4-.1-.7-.3-.9.4,0,.7,0,.6-.6h-.9c0,.8,0,1.5.6,1.5ZM118.4,202.8c-.4-1.7.6-3.6,0-4.6-.9,1-.4,3.2,0,4.6ZM118.4,82.7c0,1-1.2,2.4-.3,3.4,1.2-.2,1.3-2.8.3-3.4ZM117.8,60.7c.2,2.8-.4,6.3.3,8.6.4-3.6.4-6.1-.3-8.6ZM119.6,177.1c-.2-.6.4-2-.3-2.1,0,.4-.5.5-.6.9.8-.1.3,1.1.9,1.2ZM119,94.7c.2,1.1-.4,3.1.3,3.7-.2-1.1.4-3.1-.3-3.7ZM121.1,206.5c0,.2,0,.6.3.6-1-1.1.6-3.2-1.2-3.7.3,4.2-1.4,10.5-.6,14.4,1.1-3.6,1-8,1.5-11.3ZM120.5,203.1c0-.9,0-1.1.6-.6-.7-3.5.3-9.1-.3-11.9-.4,3.1-1.1,9.5-.3,12.6ZM121.5,182.6c-.6-.7-.2,2.2-.3,3.1-.5,0,0,.5.3.6v-3.7ZM122.7,251.2c.2,1-.4,2.8.3,3.4-.2-1,.4-2.8-.3-3.4ZM128.2,237.1v5.2c.2,1.5-.4,3.9.3,4.9-.2-3.3.4-7.3-.3-10.1ZM129.7,253c-.6-1.7.5-2.5-.6-3.7.3,1.1-.7,3.6.6,3.7ZM131.9,244.8v-2.1c-1.3,0-.3,1.9,0,2.1ZM132.5,235.9c.8-1.1-.3-2.4,0-4-1.5.7.4,3.2,0,4ZM132.5,241.1c.6-2.8-1-3.3,0,0h0ZM135.5,239.6c.2-3.7.1-4-.6-6.7,0,3.2-.6,4.8.6,6.7ZM140.7,243.8c0-1.1,0-2-.6-2.4,0,1-.6,2.1.6,2.4ZM146,234.7c-.5.1-.5,2.3,0,2.4-.2-.8,1.5-2.3,0-2.4ZM146.6,246.9c-.3-.8.6-2.6-.6-2.4.8.9-.5,2.2.6,2.4ZM146.6,243.8c.1-1.1.8-3.3,0-4.3.3,1.6-1,3.4,0,4.3ZM147.8,255.2c-.2-.9.4-2.6-.3-3.1-.4,1.1-.4,2.1.3,3.1ZM152.4,16.6c-.3-1.2.5-2.7,0-3.1-.5.3-.5,3.8,0,3.1ZM154.5,242.6c0,.4,0,.9.3.9.2-.2-.4-3.3-.6-3.1.2,1.1-.3,1.3-.6,1.8.6.2.2.9.9.3ZM161.6,240.5c0-3.3-.5-6.4-1.2-8.3.4,4,.3,6.1,1.2,8.3ZM161.9,248.8c-.6-2.2,1.1-4.7-.3-5.8.2,1.7-.4,5.7.3,5.8ZM163.4,245.1c-.4-1.3.9-2.4,0-3.1-.1.7-.7,3.6,0,3.1ZM163.7,233.7c.2,1.1-.4,3.1.3,3.7-.2-1.1.4-3.1-.3-3.7ZM183,18.1c-.2-.8-.1-1.9-.6-2.5.2,1.2-1.3,2.4-.3,3.4,0-.7.3-1,.9-.9ZM182.7,61.9c.5-.5.3-2.1-.6-2.1.4.5,0,1.8.6,2.1ZM183.6,73.5c-.2-.7.4-2.2-.3-2.5-.4.9-.4,1.9.3,2.5ZM184.2,38c-.8,3-1.8,7.4-.9,11,0-3.8,1.2-8,.9-11ZM187.6,152.9c.1-1,.8-3.1,0-4-.5,1.1-1,3.1,0,4ZM120.2,149.5c0-.8,0-1.5.6-1.5-.4,6.1,1.1,11.7.3,19.6-.2-.7-.7-1.1-1.2-1.5,2.1,5.1.8,11.1,2.1,17.5.1-3.8.4-7.2.6-11.3.1,4.7,1.3,14.3-.3,16.5-.1,1.3.8-.3.9.9.1.8-1.4,1.4-.6,1.8.3,7.2.7,17.3.9,24.5.8-.9.3-.5,0-1.5.4,0,.7.1.9.3-.3-1.1-.7-.8-.3-2.1.6.6.8,0,1.2-.3-.2,1.5.8,3.5.6,4,0-1.3-1.3.2-.6.3.9.4,1.2,4.6,1.5,7.4.4-.9,0-2.6.6-3.4.4,0,.3.5.6.6-.3-1.5,1.2-.2.3-1.5.5.3,1.1.6.9,1.5-.8,0-1.3.2-1.5.6,0,.5.6.4.6,1.5,1.4.4-.5-1.3.6-1.5.4.8,1.1-.3,1.2.3-.4,1.9-.6,2.4.3,4.3-1-.4-.2,1-1.2.6,1.5,3.4-.6,11.7.9,12.6-.3,1.3-.9.3-1.2,1.5,1.8.3-.6.4-.3,1.2.9.8.8.6,1.5.6v.9c-.4,0-.7-.1-.9-.3.2,2.2-.6,5.5.9,6.4.5-.2.5-3.5,0-2.8-.2.6.5,2.1-.6,1.8.2-1.5-.4-3.9.3-4.9.9-.1-.2,1.7.6,1.5.5-6.7.6-12.7.9-18.4,0,.4,0,.7-.6.6.3-2,.8-2.5,1.2-3.1,0-.6-.5.2-.6-.3.7-.5.6-.6.3-1.5.4,0,.7.5.9,0-1.9-.8,0-3.7,0-4.3-.3,1.8,1.6,3.8.3,4.6,1.4,3.8,1,5.9,2.5,9.2.2.7-.4,2.2.3,2.4v-2.8c0-.4-.1-.7-.3-.9.5-.3.5-1.1,1.2-1.2.3,1,.7.3,1.2,0,0,.5.6,1.8.9.9-.8,0,1.2-1.4,0-1.8,0,.4,0,.9-.3.9.5-2.1-1.1-4.6.6-5.2.1,1.2-.7,1.9.3,2.5,0-.4,0-.9.3-.9.3,2.3-.6,7.6,0,8.9-.8.4-1-.2-1.2.3,1.3,3.9-.2,9.1.9,12.9.3-9,.5-12.8,1.5-19.6,1.3,4.2-.6,10.7.6,17.2.6-4.9,0-9,.9-12.6,0,.2,0,.6.3.6,0-1,0-1.9-.6-2.1.6-.4,1.5-2.6.3-1.2.3-2.6,1.2-4.2,1.2-6.4.8,4,.5,5.8.9,9.5.4-.9,1.2-3.7.3-3.7.9-.5-.5-1.6.3-1.8,1.2,1.8-.3,3.9.9,5.2.9-1.1-.7-2.9.6-3.4-.6,1.5.8,3.2,1.2,4.6,0-1.4.2-2.6.3-3.1.7,1.2-.2,2.9.6,4.3.6-.6-.8-2.6,1.2-2.5-.1.6-.8,2.3,0,2.8,0-1.2,0-1.4.6-.6-.1-1.5-.3-.8.3-1.2-.8-1-1.1-4.9.3-6.1-.4,2.3-.2,3.1.6,5.5.3-1.6-.1-2.5,0-4.6h.9c.3-1-1-.4-.9-1.2,1.2.4,1.1-.5,1.5-.9-.5,2.3.3,2,.6,4.3.1-1.4.4-1.3.6-2.5.7,1.6-.5-.8.3-.9.8,1.2.3,5.4,1.5,5.2-.4,0-.4-.9,0-.9.4.7,0,2.3.9,2.5.9-1.3-1.2-1.3,0-3.1-.2.6,0,2.3.6,1.2-.5-.6-.5-3.4,0-4,.9,2.3-.2,5.8,1.8,7.4.1-2.3-.4-5.3.6-6.7.5.2,0,1.5.6,1.5,1.4-.5-.5-2.5.9-3.1.2,2-.2,2.7.9,3.7,0-1.4-.7-3.8,0-6.1.2,1.5.2-.3.6-.3.9,1.8,0,3,.6,5.2.2-1.3-.1-3.3.9-2.1-.2-.7-.7-2.7,0-3.4.4.3.5,2.5.9,1.8-.2-1.2-.4-2.2,0-3.1-.1,1.3,1.3,1,.9,2.5-.3,0-.4-.2-.6-.3,1.6.8-.9,3,.9,2.1-.2,2.8-1.6,5.5,0,7-.2-1.9-.4-3.3.6-4.9.3.3.2,2.6.6,1.8-.4-2.5.3-4,1.5-4.9-.7-.9.3-3-.3-5.2.4,0,.4.4.9.3,0-1.7,0-3.3.6-4.3.2.8-.4,2.4.3,2.8,0-1.4.8-1.8,1.5-3.1.2,1.2-.5,5.3.6,3.7-.2,2.4.6,4.8-.3,4.9,1,1.3.7,5.6.9,6.4.6,1.9.4-1,.3-.3.1-1.9-.9-4.6.6-5.8,0,2,0,5.5.6,5.8-.6-2.1.9-2.5,0-4.3,0,.4,0,.9-.3.9.9-2.7-.7-4.6-.3-6.4,0-.5.8-.7.9-1.2,0,0-.8,0-.6-.3,0-.2.8-.5.9-.9.3-1.5-1-3.8.6-5.8.7,4.7-.2,12.1,1.5,17.2.2-3.1-1.2-7.7,0-9.8-.4,0-.9,0-.9-.3,1.1-2.2.5-6.1,1.8-8.6-.1,1,1.3,1.9.6,2.5-.8.2.2-1.4-.6-1.2-.5.5.3,1,0,2.1.7.4,1.1-.8,1.2,0,0,1.8-.1,3.8.9,4.6.9-8.2,1.2-19.9,1.2-29.7-.2.5-.3-.1-.6-.3-.2.5.4,1.8-.3,1.8-.5-6.1-1.1-13-.6-17.2,0,.5.4.8.6.3-.4-.7-.5-.8-.9-.9.3-.5.3-1.2.9-.6.1-2.7-1.2-5.5-.3-8,.4.2,0,1.2.6,1.2.5-1.6-.7-1.5-.9-2.5.6,0,.7-.3,1.2-.3-.6-4.3-1.1-7.1.3-10.7-2.7-.7,1.3-4.5,0-4.6-.1.7-.3,1.3-.9,1.5.2-6.7-2.9-11.7-1.2-17.8.7-.7,2.2-.7,2.8-1.5-1.2.5-.6-.8-1.2-.9-.8.6,0,1-.6,1.5-.3-1,0,.9-.9.3,0-12-1.7-23.9-1.2-35.2.4,0,.3.5.6.6-.3-1.3-1.2-2-.6-2.8.5,0,.2.8.6.9.8-.8-1.9-6-.3-6.4,0,0-.5,5.5.3,1.2,1.1-5.6-.1-9.9-.3-15,0,.8,0,1.5.6,1.5.7-2.9-.3-6.1,0-8.3,0,.2,0,.6.3.6-.5-10.1.8-25.9-2.1-35.8-1.1.1-1.1-.8-1.5-1.2,0,.2,0,.6-.3.6.5-4.4-.9-7.4,0-11.6,0,2,.2,5.5.9,6.4,0-2.9,0-5.7-1.2-7.4.6-1.5.5-2.5.6-4.9-.4,0-.9,0-.9-.3,0-.4.5-.7,0-.9-1.5,3.1-1.3,7.9-1.8,11.9-1.5-2.2,0-5.2-.6-7-1.6.2-.7-4.7-1.8-5.2-1.8.9.5,4.3-1.2,5.5-.3-.3,0-1.1-.9-.9-.2.5-.2,1.3-.6,1.5-.4-2-2.8-3.4-4-2.8-.3-1.5.6-1.3.9-1.5-.6.1.7-1.9-.3-2.1,0,.7,0,1.2-.6,1.2-.4-.9-.4-2.2,0-3.1-.5-.7-.3-5-.6-1.5-.7.9.9,4.4-.6,5.2-.7,0-.3-.9-.9-.9,0,.9.8,2.4,0,3.1-.4-1.9-.9-4.4-.6-6.4-.6.2,0,1.7-.6,1.8,0-.2,0-.6-.3-.6,0,1.3-.2.7-.6.3.2.8-.6.6-.9.9.6,1.4-.3,3.2-2.5,2.8,0,.9.3,2.1-.6,2.1v-2.5h.9c-.2-.6.4-2-.3-2.1-.2.5.4,1.8-.3,1.8-.2-1.4,0-2.1-.3-2.8,0,.4-.5.3-.9.3,0,2.3.2,4.7-1.5,5.2,0-.5.1-1.1-.3-1.2-1.1,0-2,1-2.8,2.1-.3-2.6.7-4.8-.3-5.8-1.3,1.9.1,3.9-.6,5.5-1.1-1.1.5-5.5-.9-6.4-.3,1,0-.9-.9-.3-.2,1.1-1.3,1.4-2.1,2.5.7,0,1,.3.9.9-.3.3,0,1.1-.9.9,0-1.2-.3-2.7-.6-3.4-.4.6,0,2-.6,2.4,0-1.3-.2,0-.6,0-.2-1.4,1.2-2.6.6-3.4,0,.4-.5.3-.9.3-.6.3.6,2.2-.3,2.8-.3-.3-.6-.6-.9-.9.2-.7.9-2.3.3-2.8-1.1,1.7-.7,2.1-2.4,3.7-.7-1-1.3-.2-2.8,0,0-.8,0-1.5-.6-1.5,0,.9.3,2.1-.6,2.1-2.6-.1-.1-2.1-.6-2.8-.6.5-.9,1.3-1.8,1.5,0-.6-.4-.6-.6-.9-.3-.9.5-2.1,0-2.1-.3.5-1,.4-1.5.6.3,3.7-1.6,5.3-3.7,6.7-3.7-1.3-.7-7.1-.9-9.5-.9,2.3-1.7,4.7-2.1,7.4,0-1.1-1.8.2-1.5.3-.7-.2.5-1.6-.3,0-.4.9-2.2,1.1-1.8.6-1.3,1.9-.8,5.8-3.1,7.7,0-2.5-.2-4.9-.9-6.7,0,2.5.6,6.1.3,8-.5-1.2-.5-2.9-1.5-3.7.5,3.4,2.5,7.1,1.5,11,0-.5-.2-.8-.6-.9.6,17.8,2.8,34.7,2.1,52.4-.2,4.8.2,10-.9,13.2.8,12.1-.2,23.7-.9,34.9.6,0,.6.4.9.6,0-.6.2-1,.6-1.2.4,2.1-2.3,2.6-1.2,4.3.4-.5.4-1.3.9-1.5.8,1.4-.2,3,.9,3.1-.4-6.8-.2-10.5.9-17.8.5,3.7-1.5,12,.3,9.8,0,.8.2,2-.6,1.2.6.9-.6,3.5.6,2.1-1.4,2.5.8,12.6-1.8,11.9.8.2-.2,3.8.6,3.1ZM120.2,108.8c-.9.2.5-8.8.3-3.4,0,.9-.5,1.8-.3,3.4ZM120.8,96.8c-.8-3,0-4.9.3-.9-.4,0-.3.6-.3.9ZM121.1,81.8c.4,1.1.5,3.4,0,3.7-.2.1-.3-2.6,0-3.7ZM127.3,220.3v-2.1c1.2-.2.4,1.4.6,2.1h-.6ZM128.5,215.1c1.1.6,0,1.4.3,2.8-.6.7-.2-2-.3-2.8ZM132.5,211.7c-.4,1.9.9,2.2.6,4-.4-.9-2-3.3-.6-4ZM132.2,216.3c1.1-.3.4,1.2.6,1.8-.8,0-.6-1-.6-1.8ZM164.3,221.5c-.1,1,.3,4.2-.3,3.7-.3-.6-.9-3.6.3-3.7ZM179.7,131.4v-1.8c1.1-.3.4,1.2.6,1.8h-.6ZM123.3,241.1c0,1.5-1,4.9,0,5.5,0-1.4.4-4.2,0-5.5ZM124.8,10.7c-.7.5-1.2,2.8-.6,3.7.6-1,1.3-3.1.6-3.7ZM126,222.7c.5-1.1.2-4.5,0-3.7.4,1.4-.9,2.7,0,3.7ZM128.8,232.5c0,.4-.5.3-.6.6,1.6-.2-1,1.1.3,1.5-.2-.8,1.3-1.6.3-2.1ZM132.2,226.1c.4,1.1.5,2.4,1.2,3.1,0-1.5.2-4.1,0-3.4,0,1.3-.4,0-1.2.3ZM135.5,242.3c0,.5,0,1.1-.6.9.2,2.5.9,3.5.3,5.8,0-.4,0-.7-.6-.6.4,1.1.5,3.3.6,3.1.9-2.7,1.2-7,.3-9.2ZM140.7,251.8c1.1-.4.3-6.4.3-1.8-.3,0-.4-.2-.6-.3-.3.6,0,3.6.6,3.1,0-.4-.4-.4-.3-.9ZM146.6,235.9c0,5.6,1.1,1.2.6-2.5-.3-.1-.7-.4-.3,0,.3,1-.3,2.3-.3,2.5ZM152.4,233.1c1.4,1.8-1.1,2.2-1.2,3.4,1.2-.2,3.3-2.8,1.2-3.4ZM155.1,11.3c-.7.9.7,2.4-.3,3.4,0-.2-.2-.3-.3,0,1.4,1.3,1.1-2.9.6-3.4ZM160,239.9c-.1-1.8,0-2.7-.3-3.4,0,.6-.5-.2-.6.3.5-.1.5,1.7,0,1.5,0-.2-.3-.3-.3,0,.8,0,.5,1.3,1.2,1.5ZM164.9,237.7c-.6.5-1,2.1.3,2.1-.4-.7,0-2.9-.3-2.1ZM181.2,28.2c.3,1.5-.9,3.1,0,4.3-.3-1.5.9-4.3,0-4.3ZM183.3,187.5c-.5.7-.5,2.7.3,2.4-.4-.7,0-3.2-.3-2.4Z"/>
    </g>
  </g>
</svg>