<?xml version="1.0" encoding="UTF-8"?>
<svg id="Layer_2" xmlns="http://www.w3.org/2000/svg" viewBox="0 0 240.61 71.93">
  <defs>
    <style>
      .cls-1 {
        fill: #f8981d;
      }
    </style>
  </defs>
  <g id="Layer_1-2" data-name="Layer_1">
    <path class="cls-1" d="M71.08,0c6.62.07-.43.81-3.67,0,1.12.01,2.22-.02,3.67,0ZM162.52,2.34c.39,1.28,2.92.41,4.34.67-1.16-1.93-2.48-.02-4.34-.67ZM155.85,2.68c.46.4,3.17,1.46,3,.33-.55-.56-1.96-.27-3-.33ZM191.89,3.34c-.86,1.51,1.97.16,2.67,1,1.38-1.29-2.53-.12-2.67-1ZM32.37,3.68c-.57-.76-2.55-.12-3.67-.34.57.77,2.55.12,3.67.34ZM216.58,7.35c1.49,1.29,4.56-.52,0,0h0ZM220.92,14.36c2.64,1.95,6.77-.23,10.68.33-1.58-.76-7.43-.12-10.68-.33ZM220.59,15.02c-2.74-.84-6.12-.05-8.34,0,1.8,1.01,6.17-.02,8.34,0ZM233.27,23.7c-.57-.76-2.55-.12-3.67-.33.57.76,2.55.12,3.67.33ZM223.26,27.37c-.68-.63-3.14.46-3.34-.33-1.09,1.15,2.8.66,3.34.33ZM219.25,27.71c-3.68-.99-12.66.64-16.02,0,3.46,1.68,11.96.04,16.02,0ZM5.01,38.39c.16.38,2.27.13.67.67.55,1.54.89-.51,2-.34-.28-.76-2.05-.91-2.67-.33ZM5.34,39.39c-1.38-.1-.62,2.33.67,1.67-.89-.5-.32-.86-.67-1.67ZM1.67,42.72c.37.48.36.81-.33,1,1.15.62,2.53.48,3.67.33-1.26-.82-1.9-1.38-3.34-1.33ZM231.93,43.72c.62.59.04,1.16-1,1,3.11.28,5.95-.62,8.68,0-1.24-2.01-5.79-.44-7.68-1ZM236.61,45.39c.2.3.4.59,0,.67.54.41,3.99.89,4-.33-1.14.49-2.65-.1-4-.33ZM225.93,54.73c-.63-.61-3.16-.29-3.34.67,1.06-.27,2.46-.21,3.34-.67ZM205.24,61.08c.82,1.09,1.63.13,3,.67.13-1.35-2.08-.37-3-.67ZM214.92,65.08c.22,1.2,1.6-.09,3,.33-.86-.54-2.09-.71-3-.33ZM70.75,69.42c2.21,1.52,13.62,1.44,16.02.33-5.95-.79-11.19.2-16.02-.33ZM65.41,70.75c1.27.47,2.43-.87,3,0,1.42-.82-3.39-1.26-3,0ZM50.06,70.09c-4.41.46-9.87.17-14.35.34-.06.72,1.19.15,1.67.33-2.71,1.11-7.43.07-11.01,1,7.95.74,15.99-1.14,23.7-.33v-1.34ZM36.71,4.34c-7.81.42-14.14,1.08-22.69.33.51,1.05,2.56.55,4.01.67-3.89,1.79-10.35,1.24-14.02,3,5.38,2.91-2.21,2.82-4.01,4.34,11.25-4.01,1.59,6.48,5.67,11.01-.81,2.34.95,3.35-1.67,5,.82-.04.57.41,0,.33,3.29.83.52.87,2.67,2.67-1.44.45-2.36,1.42-.33,2.34-.81.45-.21.67-.67,1,1.18,1.39,6.12,6.73,1,5.67.31.5,2.41.54.33.67.04.85,1.12.66,2,.67-.82,1.55-2.81,1.5-1.33,3.34-2.79,1.51-.66,3.26-1.67,6.01-.87-1.56-3.77-1.78-5.67-1.34.09.69,1.47.09,1.67.67-3.65.65,2.4,1.52,4.34,1.33-.92.56-.16.88-.67,2h1.33c.24,1.79-2.43.68-2,2.67.71.16.64-.47.67-1,2.99-1.23,7.11,3.12,2.33,2.67-.86.45,1.65.32,2,.67-1.49.06-1.03,2.09-2.34,2.34.05.73.84.71,1.67.67-.59.41-1.35.65-1.67,1.34-.27-.29-.92-.2-1-.67-.84.65,1.79.63,1,2.34,1.09-.24,4.19-1.24,4-1.67,28.85,8.59,60.11,3.67,90.44,5.34-.1.46-.83.28-1.33.34.72,1.28,2.54,1.46,4.67,1.34,0-.33-.41-.26-.67-.34,22.31-3.02,46.53-2.88,70.75-1.67-.15-.3-.29-.6-.67-.67,12.56-.49,25.97-.9,39.71-2-.04-.85-1.12-.66-2-.67.91-.53,2.2-.69,3.67-.67-3.1-1.35-8.65,1.58-12.01-.34,1.07-1.11,2.41.02,4.01-.66-1.16-.63-3.3-.26-4.67-.67.05-.39.61-.28,1-.33-1.46-.88-6.04-.91-8.34-1,3.61-.46,5.22-.96,9.34-1,.03-1.51-1.01.15-2-.33,1.37-.86,3.38-1.08,5.34-1.34-.62,1.09-1.71.23-3,1,.79.77,2.99.12,4.34.33-1.18-.45-.53-.67-1-1.67,1.23-.16,4.85-.96,6.34-.67-.15-1.41,3.29-1.42,5.67-1.34-1.5-.47-.59-1.07,1-1,.09-.54-.32-.57-.33-1,1.92-.43,3.54-.94,4.67-1.34-4.43-.62-9.73.9-17.02,1,0-.33.41-.26.67-.34-1.9-.43-5.6.72-8.01.34,3.09-1.94,8.92-.49,11.01-1.34-2.94-1.26-.71-1.32,1.33-1.67-3.3-.8-8.76.65-12.01-.33.13-.75,2.08.05,1-1,4.24,1.52,5.7-1.59.67-.33,2.98-1.64,8.53-1.51,14.35-1.67-1.94-1.42-4.34.13-7.67-.33.24-1.21,2.43-.46,3.67-.67-.07-.45-1.39-.62,0-.67-.47-.69-1.78-.02-3-.67,1.01-.77,2.85-.71,4-1.34-1.31,1.21.24-.05.67.67.39-.2-.41-1.45,1.34-1-.04-.74-1.42-.14-2-.33.07-1.04,2.18-.04,2-1.33-2.87,0,2.45-.56,3.67-.34-.5-.49-1.46-.54-2.34-.67.39-.61,1.74-.26,2.34-.67-2.09-.48-5.89.95-7.68,0,1.23-.49,2.35-.1,4.34-.33-2.52-1.24,3.75-2.49-1-2.34,2.06-1.32,2.9-.84-.67-1,.88-.35,5.78-.89,2-1.33.04-.74,1.42-.14,2-.33,1.13-.3-2.92-.94-2.34.33-.86-.57.74-1.47,1.33-1.67-2.08-.18-5.9.14-7.34-.33,3.03-.42,14.43-.56,6.01-1.34,3.55-1.28-.09-.15-1.33-.67-.84.14.32.95,1,.67-3.07.99-4.34.24-7.34.67.14.75,1.83-.05,1.67,1-1.8-.3-2.81-1.68-4.67-1,1.98-.96,3.18-.63,5.67-1-1.15-1.06-2.96-.94-4.67-.67,1.1-.9,3.37-.63,5.34-.67-3.58-1.93-9.66-.62-13.35-3,1.43-.29,1.77-.68,4-.67-.85-.72-3.12-1.38-4-1,4.85-1.82,11.69-1.66,18.35-1.67-2.22-.92-.98.05,0-1.33h-4.67c2.6-1.28,3.82-.25,6.34-.34,0,0-.41-.35-.67-.33,1.43-.07,3.39-.02,5.67-.67-3.96-.77-9.85.91-15.35.67,7.2-1.76,3.81-1.33-2.67-1.67,2.47-3.35,8.63-.38,12.68-.67-.05-.39-.61-.28-1-.33.66-.78,2.33-.49,2.33.67,1.87.58,2.44-1.33,3.67-.34-1.61-.73-6.77-1.4-10.01-1.66,2.02-.75-1.93-1.12-.67,0-2.3-.84-3.77-.44-7.34-.67,1.88-1.26-6.05.22-4-1-1.86-.28-5.01-.9-8.01-1,3.39-.64,6.76.28,10.35,0-2.24-.92-6.56-1.4-8.68-1.33.12-1.5,1.78-.2,1.67-1.34-1.93-.32-2.81-.01-4.67-.67,3.56-1.45,9.71-.3,14.35-.67-.6-1.15-1.71-.28-.67-1.67-2.48,1.37-4.76.04-8.68,0,3.79-.88,7.43.22,10.34-.33-22.1-5.24-41.86-4.42-67.08-5.01-.12-.57.26-.63.67-.67-1.8-.06-11.1,1.07-10.68,0-27.12-.75-68.45-5.46-95.11.67ZM7.68,34.05c-1.36.19-1.06-1.38-.33-1.67.73.69-.29,1.08.33,1.67ZM212.25,54.41c2.58-.2,5.14-.42,7.67-.67-2.01,1.58-4.89.77-7.67.67ZM209.58,9.02v.67c.28-.06.31.13.33.33,1.46-.84,2.7-.37-.33-1ZM228.6,26.7c-1.04.04-3.45-.46-4.67.33,1.02.67,3.44-.11,4.67-.33ZM223.59,31.71c-.25-.75-1.87-.13-2.67-.33-.75.27,1.91,1.06,2.67.33ZM238.61,32.71c-1.97-.96-4.41.47-7.01,0,1.54,1.65,4.32-.63,7.01,0ZM231.27,33.38c-1.84-1-5.03-.09-7.68,0,1.21.97,4.72-.59,7.68,0ZM227.93,39.72c-1.21-.97-3.12.21-4.34.33,1.17.51,3.07-.6,4.34-.33ZM212.58,48.73c-.9-.87-2.98-.1-3,1,.72-.62,1.78-.89,3-1ZM89.77,69.42c.54,2.4,4.43.02,5.34.67-1.23-.99-3.69.02-5.34-.67ZM65.08,71.09c-.68-1.21-5.49-.6-5.01.34-1.06-.05-1.47-.76-2.67-.67,2.11,1.98,4.41-.16,7.68.33Z"/>
  </g>
</svg>