<?xml version="1.0" encoding="UTF-8"?>
<svg id="Layer_1" xmlns="http://www.w3.org/2000/svg" viewBox="0 0 3840 2160">
  <defs>
    <style>
      .cls-1 {
        fill: #deddda;
      }
    </style>
  </defs>
  <path class="cls-1" d="M3790.11,1727.52l-.06.35c-.01.06-.09.06-.1,0l-.06-.35c-.08-.44-.43-.79-.87-.87l-.35-.06c-.06-.01-.06-.09,0-.1l.35-.06c.44-.08.79-.43.87-.87l.06-.35c.01-.06.09-.06.1,0l.06.35c.08.44.43.79.87.87l.35.06c.06.01.06.09,0,.1l-.35.06c-.44.08-.79.43-.87.87Z"/>
  <path class="cls-1" d="M3565.16,1809.62l-.1.58c-.02.09-.15.09-.16,0l-.1-.58c-.13-.71-.68-1.27-1.39-1.39l-.58-.1c-.09-.02-.09-.15,0-.16l.58-.1c.71-.13,1.27-.68,1.39-1.39l.1-.58c.02-.09.15-.09.16,0l.1.58c.13.71.68,1.27,1.39,1.39l.58.1c.09.02.09.15,0,.16l-.58.1c-.71.13-1.27.68-1.39,1.39Z"/>
  <path class="cls-1" d="M1669.19,1988.1l-1.75,9.74c-.06.34-.55.34-.61,0l-1.75-9.74c-.48-2.68-2.58-4.78-5.26-5.26l-9.74-1.75c-.34-.06-.34-.55,0-.61l9.74-1.75c2.68-.48,4.78-2.58,5.26-5.26l1.75-9.74c.06-.34.55-.34.61,0l1.75,9.74c.48,2.68,2.58,4.78,5.26,5.26l9.74,1.75c.34.06.34.55,0,.61l-9.74,1.75c-2.68.48-4.78,2.58-5.26,5.26Z"/>
  <path class="cls-1" d="M893.76,2109.28l-1.18,6.58c-.04.23-.37.23-.41,0l-1.18-6.58c-.32-1.81-1.74-3.22-3.55-3.55l-6.58-1.18c-.23-.04-.23-.37,0-.41l6.58-1.18c1.81-.32,3.22-1.74,3.55-3.55l1.18-6.58c.04-.23.37-.23.41,0l1.18,6.58c.32,1.81,1.74,3.22,3.55,3.55l6.58,1.18c.23.04.23.37,0,.41l-6.58,1.18c-1.81.32-3.22,1.74-3.55,3.55Z"/>
  <path class="cls-1" d="M3566.61,1698.48l-1.79,10c-.06.35-.57.35-.63,0l-1.79-10c-.49-2.75-2.65-4.9-5.4-5.4l-10-1.79c-.35-.06-.35-.57,0-.63l10-1.79c2.75-.49,4.9-2.65,5.4-5.4l1.79-10c.06-.35.57-.35.63,0l1.79,10c.49,2.75,2.65,4.9,5.4,5.4l10,1.79c.35.06.35.57,0,.63l-10,1.79c-2.75.49-4.9,2.65-5.4,5.4Z"/>
  <path class="cls-1" d="M2947.4,1870.58l-.27,1.5c-.03.18-.29.18-.32,0l-.27-1.5c-.25-1.41-1.35-2.51-2.76-2.76l-1.5-.27c-.18-.03-.18-.29,0-.32l1.5-.27c1.41-.25,2.51-1.35,2.76-2.76l.27-1.5c.03-.18.29-.18.32,0l.27,1.5c.25,1.41,1.35,2.51,2.76,2.76l1.5.27c.18.03.18.29,0,.32l-1.5.27c-1.41.25-2.51,1.35-2.76,2.76Z"/>
  <path class="cls-1" d="M2993.65,1969.11l-.75,4.21c-.04.24-.38.24-.42,0l-.75-4.21c-.33-1.85-1.78-3.3-3.63-3.63l-4.21-.75c-.24-.04-.24-.38,0-.42l4.21-.75c1.85-.33,3.3-1.78,3.63-3.63l.75-4.21c.04-.24.38-.24.42,0l.75,4.21c.33,1.85,1.78,3.3,3.63,3.63l4.21.75c.24.04.24.38,0,.42l-4.21.75c-1.85.33-3.3,1.78-3.63,3.63Z"/>
  <path class="cls-1" d="M2820.16,1841.64l-.12.65c-.02.13-.2.13-.23,0l-.12-.65c-.18-.99-.95-1.76-1.94-1.94l-.65-.12c-.13-.02-.13-.2,0-.23l.65-.12c.99-.18,1.76-.95,1.94-1.94l.12-.65c.02-.13.2-.13.23,0l.12.65c.18.99.95,1.76,1.94,1.94l.65.12c.13.02.13.2,0,.23l-.65.12c-.99.18-1.76.95-1.94,1.94Z"/>
  <path class="cls-1" d="M2370.2,1982.76l-.25,1.39c-.02.11-.18.11-.2,0l-.25-1.39c-.15-.86-.83-1.54-1.69-1.69l-1.39-.25c-.11-.02-.11-.18,0-.2l1.39-.25c.86-.15,1.54-.83,1.69-1.69l.25-1.39c.02-.11.18-.11.2,0l.25,1.39c.15.86.83,1.54,1.69,1.69l1.39.25c.11.02.11.18,0,.2l-1.39.25c-.86.15-1.54.83-1.69,1.69Z"/>
  <path class="cls-1" d="M1967.12,2091.91v.08c-.04.12-.21.12-.23,0v-.08c-.18-.94-.92-1.67-1.85-1.84h-.08c-.12-.04-.12-.21,0-.23h.08c.94-.18,1.67-.92,1.84-1.85v-.08c.04-.12.21-.12.23,0v.08c.18.94.92,1.67,1.85,1.84h.08c.12.04.12.21,0,.23h-.08c-.94.18-1.67.92-1.84,1.85Z"/>
  <path class="cls-1" d="M1834.92,1711.47l-.03.15c-.02.11-.18.11-.2,0l-.03-.15c-.16-.87-.83-1.55-1.7-1.7l-.15-.03c-.11-.02-.11-.18,0-.2l.15-.03c.87-.16,1.55-.83,1.7-1.7l.03-.15c.02-.11.18-.11.2,0l.03.15c.16.87.83,1.55,1.7,1.7l.15.03c.11.02.11.18,0,.2l-.15.03c-.87.16-1.55.83-1.7,1.7Z"/>
  <path class="cls-1" d="M1839.68,2045.76l-.03.17c-.01.07-.11.07-.12,0l-.03-.17c-.1-.54-.52-.97-1.07-1.07l-.17-.03c-.07-.01-.07-.11,0-.12l.17-.03c.54-.1.97-.52,1.07-1.07l.03-.17c.01-.07.11-.07.12,0l.03.17c.1.54.52.97,1.07,1.07l.17.03c.07.01.07.11,0,.12l-.17.03c-.54.1-.97.52-1.07,1.07Z"/>
  <path class="cls-1" d="M1311.61,2104.52l-.03.17c-.03.15-.25.15-.28,0l-.03-.17c-.22-1.21-1.16-2.15-2.37-2.37l-.17-.03c-.15-.03-.15-.25,0-.28l.17-.03c1.21-.22,2.15-1.16,2.37-2.37l.03-.17c.03-.15.25-.15.28,0l.03.17c.22,1.21,1.16,2.15,2.37,2.37l.17.03c.15.03.15.25,0,.28l-.17.03c-1.21.22-2.15,1.16-2.37,2.37Z"/>
  <path class="cls-1" d="M1349.18,1813.87l-.26,1.43c-.02.09-.15.09-.16,0l-.26-1.43c-.13-.71-.68-1.26-1.39-1.39l-1.43-.26c-.09-.02-.09-.15,0-.16l1.43-.26c.71-.13,1.26-.68,1.39-1.39l.26-1.43c.02-.09.15-.09.16,0l.26,1.43c.13.71.68,1.26,1.39,1.39l1.43.26c.09.02.09.15,0,.16l-1.43.26c-.71.13-1.26.68-1.39,1.39Z"/>
  <path class="cls-1" d="M1391.08,1933.38l-.65,3.64c-.04.21-.35.21-.39,0l-.65-3.64c-.3-1.68-1.62-3-3.3-3.3l-3.64-.65c-.21-.04-.21-.35,0-.39l3.64-.65c1.68-.3,3-1.62,3.3-3.3l.65-3.64c.04-.21.35-.21.39,0l.65,3.64c.3,1.68,1.62,3,3.3,3.3l3.64.65c.21.04.21.35,0,.39l-3.64.65c-1.68.3-3,1.62-3.3,3.3Z"/>
  <path class="cls-1" d="M1169.4,1724.3l-.95,5.29c-.04.21-.34.21-.38,0l-.95-5.29c-.3-1.66-1.6-2.96-3.26-3.26l-5.29-.95c-.21-.04-.21-.34,0-.38l5.29-.95c1.66-.3,2.96-1.6,3.26-3.26l.95-5.29c.04-.21.34-.21.38,0l.95,5.29c.3,1.66,1.6,2.96,3.26,3.26l5.29.95c.21.04.21.34,0,.38l-5.29.95c-1.66.3-2.96,1.6-3.26,3.26Z"/>
  <path class="cls-1" d="M379.07,1764.35l-.24,1.31c-.01.08-.13.08-.15,0l-.24-1.31c-.12-.65-.63-1.16-1.28-1.28l-1.31-.24c-.08-.01-.08-.13,0-.15l1.31-.24c.65-.12,1.16-.63,1.28-1.28l.24-1.31c.01-.08.13-.08.15,0l.24,1.31c.12.65.63,1.16,1.28,1.28l1.31.24c.08.01.08.13,0,.15l-1.31.24c-.65.12-1.16.63-1.28,1.28Z"/>
  <path class="cls-1" d="M608.87,1726.28l-.1.53s-.06.04-.06,0l-.1-.53c-.05-.28-.27-.5-.55-.55l-.53-.1s-.04-.06,0-.06l.53-.1c.28-.05.5-.27.55-.55l.1-.53s.06-.04.06,0l.1.53c.05.28.27.5.55.55l.53.1s.04.06,0,.06l-.53.1c-.28.05-.5.27-.55.55Z"/>
  <path class="cls-1" d="M108.85,1803.02l-.03.19c-.01.08-.13.08-.14,0l-.03-.19c-.11-.61-.59-1.09-1.2-1.2l-.19-.03c-.08-.01-.08-.13,0-.14l.19-.03c.61-.11,1.09-.59,1.2-1.2l.03-.19c.01-.08.13-.08.14,0l.03.19c.11.61.59,1.09,1.2,1.2l.19.03c.08.01.08.13,0,.14l-.19.03c-.61.11-1.09.59-1.2,1.2Z"/>
  <path class="cls-1" d="M110.57,2118.51l-.72,4.03c-.06.34-.55.34-.61,0l-.72-4.03c-.48-2.65-2.55-4.73-5.2-5.2l-4.03-.72c-.34-.06-.34-.55,0-.61l4.03-.72c2.65-.48,4.73-2.55,5.2-5.2l.72-4.03c.06-.34.55-.34.61,0l.72,4.03c.48,2.65,2.55,4.73,5.2,5.2l4.03.72c.34.06.34.55,0,.61l-4.03.72c-2.65.48-4.73,2.55-5.2,5.2Z"/>
  <path class="cls-1" d="M71.38,1443.97l-.16.9c-.01.08-.12.08-.13,0l-.16-.9c-.11-.59-.57-1.05-1.16-1.16l-.9-.16c-.08-.01-.08-.12,0-.13l.9-.16c.59-.11,1.05-.57,1.16-1.16l.16-.9c.01-.08.12-.08.13,0l.16.9c.11.59.57,1.05,1.16,1.16l.9.16c.08.01.08.12,0,.13l-.9.16c-.59.11-1.05.57-1.16,1.16Z"/>
  <path class="cls-1" d="M3722.38,1990.67l-1.23,6.83c-.06.34-.54.34-.6,0l-1.23-6.83c-.47-2.63-2.53-4.68-5.15-5.15l-6.83-1.23c-.34-.06-.34-.54,0-.6l6.83-1.23c2.63-.47,4.68-2.53,5.15-5.15l1.23-6.83c.06-.34.54-.34.6,0l1.23,6.83c.47,2.63,2.53,4.68,5.15,5.15l6.83,1.23c.34.06.34.54,0,.6l-6.83,1.23c-2.63.47-4.68,2.53-5.15,5.15Z"/>
  <path class="cls-1" d="M3315.67,1586.66l-.08.47c-.02.09-.14.09-.15,0l-.08-.47c-.12-.68-.65-1.21-1.33-1.33l-.47-.08c-.09-.02-.09-.14,0-.15l.47-.08c.68-.12,1.21-.65,1.33-1.33l.08-.47c.02-.09.14-.09.15,0l.08.47c.12.68.65,1.21,1.33,1.33l.47.08c.09.02.09.14,0,.15l-.47.08c-.68.12-1.21.65-1.33,1.33Z"/>
  <path class="cls-1" d="M3292.88,1852.65h0c-.03.16-.25.16-.28,0h0c-.22-1.23-1.18-2.19-2.41-2.41h0c-.16-.03-.16-.25,0-.28h0c1.23-.22,2.19-1.18,2.41-2.41h0c.03-.16.25-.16.28,0h0c.22,1.23,1.18,2.19,2.41,2.41h0c.16.03.16.25,0,.28h0c-1.23.22-2.19,1.18-2.41,2.41Z"/>
  <path class="cls-1" d="M2643.58,1666.96l-.19,1.05c-.02.09-.15.09-.16,0l-.19-1.05c-.13-.71-.68-1.26-1.39-1.39l-1.05-.19c-.09-.02-.09-.15,0-.16l1.05-.19c.71-.13,1.26-.68,1.39-1.39l.19-1.05c.02-.09.15-.09.16,0l.19,1.05c.13.71.68,1.26,1.39,1.39l1.05.19c.09.02.09.15,0,.16l-1.05.19c-.71.13-1.26.68-1.39,1.39Z"/>
  <path class="cls-1" d="M2909.43,2057.23l-.11.6c-.03.16-.26.16-.29,0l-.11-.6c-.23-1.28-1.23-2.29-2.52-2.52l-.6-.11c-.16-.03-.16-.26,0-.29l.6-.11c1.28-.23,2.29-1.23,2.52-2.52l.11-.6c.03-.16.26-.16.29,0l.11.6c.23,1.28,1.23,2.29,2.52,2.52l.6.11c.16.03.16.26,0,.29l-.6.11c-1.28.23-2.29,1.23-2.52,2.52Z"/>
  <path class="cls-1" d="M3060.56,2123.76l-.29,1.63c-.04.2-.32.2-.36,0l-.29-1.63c-.28-1.56-1.5-2.78-3.06-3.06l-1.63-.29c-.2-.04-.2-.32,0-.36l1.63-.29c1.56-.28,2.78-1.5,3.06-3.06l.29-1.63c.04-.2.32-.2.36,0l.29,1.63c.28,1.56,1.5,2.78,3.06,3.06l1.63.29c.2.04.2.32,0,.36l-1.63.29c-1.56.28-2.78,1.5-3.06,3.06Z"/>
  <path class="cls-1" d="M2588.72,1888.92h0c-.03-.18-.28-.18-.32,0h0c-.25,1.38-1.33,2.47-2.71,2.71h0c-.18.03-.18.28,0,.32h0c1.38.25,2.47,1.33,2.71,2.71h0c.03.18.28.18.32,0h0c.25-1.38,1.33-2.47,2.71-2.71h0c.18-.03.18-.28,0-.32h0c-1.38-.25-2.47-1.33-2.71-2.71Z"/>
  <path class="cls-1" d="M2165.67,1574.2l-.22,1.22c-.02.09-.15.09-.16,0l-.22-1.22c-.13-.71-.69-1.27-1.4-1.4l-1.22-.22c-.09-.02-.09-.15,0-.16l1.22-.22c.71-.13,1.27-.69,1.4-1.4l.22-1.22c.02-.09.15-.09.16,0l.22,1.22c.13.71.69,1.27,1.4,1.4l1.22.22c.09.02.09.15,0,.16l-1.22.22c-.71.13-1.27.69-1.4,1.4Z"/>
  <path class="cls-1" d="M2102.58,2004.13l-.07.4c-.02.09-.15.09-.17,0l-.07-.4c-.13-.73-.7-1.3-1.43-1.43l-.4-.07c-.09-.02-.09-.15,0-.17l.4-.07c.73-.13,1.3-.7,1.43-1.43l.07-.4c.02-.09.15-.09.17,0l.07.4c.13.73.7,1.3,1.43,1.43l.4.07c.09.02.09.15,0,.17l-.4.07c-.73.13-1.3.7-1.43,1.43Z"/>
  <path class="cls-1" d="M1560.14,2031.33l-.42,2.35c-.02.14-.22.14-.25,0l-.42-2.35c-.19-1.08-1.04-1.93-2.12-2.12l-2.35-.42c-.14-.02-.14-.22,0-.25l2.35-.42c1.08-.19,1.93-1.04,2.12-2.12l.42-2.35c.02-.14.22-.14.25,0l.42,2.35c.19,1.08,1.04,1.93,2.12,2.12l2.35.42c.14.02.14.22,0,.25l-2.35.42c-1.08.19-1.93,1.04-2.12,2.12Z"/>
  <path class="cls-1" d="M1035.5,1604.28l-.38,2.09c-.02.09-.15.09-.16,0l-.38-2.09c-.13-.72-.69-1.29-1.41-1.41l-2.09-.38c-.09-.02-.09-.15,0-.16l2.09-.38c.72-.13,1.29-.69,1.41-1.41l.38-2.09c.02-.09.15-.09.16,0l.38,2.09c.13.72.69,1.29,1.41,1.41l2.09.38c.09.02.09.15,0,.16l-2.09.38c-.72.13-1.29.69-1.41,1.41Z"/>
  <path class="cls-1" d="M1101.67,1803.05l-.15.86c-.02.09-.14.09-.16,0l-.15-.86c-.12-.69-.66-1.23-1.35-1.35l-.86-.15c-.09-.02-.09-.14,0-.16l.86-.15c.69-.12,1.23-.66,1.35-1.35l.15-.86c.02-.09.14-.09.16,0l.15.86c.12.69.66,1.23,1.35,1.35l.86.15c.09.02.09.14,0,.16l-.86.15c-.69.12-1.23.66-1.35,1.35Z"/>
  <path class="cls-1" d="M971.15,2006.11l-.26,1.44c-.03.16-.26.16-.29,0l-.26-1.44c-.22-1.25-1.21-2.23-2.46-2.46l-1.44-.26c-.16-.03-.16-.26,0-.29l1.44-.26c1.25-.22,2.23-1.21,2.46-2.46l.26-1.44c.03-.16.26-.16.29,0l.26,1.44c.22,1.25,1.21,2.23,2.46,2.46l1.44.26c.16.03.16.26,0,.29l-1.44.26c-1.25.22-2.23,1.21-2.46,2.46Z"/>
  <path class="cls-1" d="M210.77,1486.55l-.52,2.88c-.06.32-.52.32-.57,0l-.52-2.88c-.45-2.5-2.41-4.46-4.91-4.91l-2.88-.52c-.32-.06-.32-.52,0-.57l2.88-.52c2.5-.45,4.46-2.41,4.91-4.91l.52-2.88c.06-.32.52-.32.57,0l.52,2.88c.45,2.5,2.41,4.46,4.91,4.91l2.88.52c.32.06.32.52,0,.57l-2.88.52c-2.5.45-4.46,2.41-4.91,4.91Z"/>
  <path class="cls-1" d="M402.45,1911.17l-.04.2c-.01.06-.1.06-.11,0l-.04-.2c-.09-.49-.47-.87-.96-.96l-.2-.04c-.06-.01-.06-.1,0-.11l.2-.04c.49-.09.87-.47.96-.96l.04-.2c.01-.06.1-.06.11,0l.04.2c.09.49.47.87.96.96l.2.04c.06.01.06.1,0,.11l-.2.04c-.49.09-.87.47-.96.96Z"/>
  <path class="cls-1" d="M423.72,1541.22l-.27,1.51c-.03.16-.26.16-.29,0l-.27-1.51c-.23-1.28-1.23-2.29-2.52-2.52l-1.51-.27c-.16-.03-.16-.26,0-.29l1.51-.27c1.28-.23,2.29-1.23,2.52-2.52l.27-1.51c.03-.16.26-.16.29,0l.27,1.51c.23,1.28,1.23,2.29,2.52,2.52l1.51.27c.16.03.16.26,0,.29l-1.51.27c-1.28.23-2.29,1.23-2.52,2.52Z"/>
  <path class="cls-1" d="M438.18,2084.53l-.3,1.69c-.02.1-.15.1-.17,0l-.3-1.69c-.13-.74-.72-1.33-1.46-1.46l-1.69-.3c-.1-.02-.1-.15,0-.17l1.69-.3c.74-.13,1.33-.72,1.46-1.46l.3-1.69c.02-.1.15-.1.17,0l.3,1.69c.13.74.72,1.33,1.46,1.46l1.69.3c.1.02.1.15,0,.17l-1.69.3c-.74.13-1.33.72-1.46,1.46Z"/>
  <path class="cls-1" d="M79.43,1598.74h0c-.01.08-.13.08-.14,0h0c-.11-.63-.61-1.13-1.24-1.24h0c-.08-.01-.08-.13,0-.14h0c.63-.11,1.13-.61,1.24-1.24h0c.01-.08.13-.08.14,0h0c.11.63.61,1.13,1.24,1.24h0c.08.01.08.13,0,.14h0c-.63.11-1.13.61-1.24,1.24Z"/>
  <path class="cls-1" d="M3680.89,1630.6l-.19,1.06c-.03.16-.26.16-.29,0l-.19-1.06c-.23-1.26-1.22-2.25-2.48-2.48l-1.06-.19c-.16-.03-.16-.26,0-.29l1.06-.19c1.26-.23,2.25-1.22,2.48-2.48l.19-1.06c.03-.16.26-.16.29,0l.19,1.06c.23,1.26,1.22,2.25,2.48,2.48l1.06.19c.16.03.16.26,0,.29l-1.06.19c-1.26.23-2.25,1.22-2.48,2.48Z"/>
  <path class="cls-1" d="M3187.99,1730.63l-.18,1.03c-.04.2-.33.2-.36,0l-.18-1.03c-.28-1.58-1.52-2.82-3.1-3.1l-1.03-.18c-.2-.04-.2-.33,0-.36l1.03-.18c1.58-.28,2.82-1.52,3.1-3.1l.18-1.03c.04-.2.33-.2.36,0l.18,1.03c.28,1.58,1.52,2.82,3.1,3.1l1.03.18c.2.04.2.33,0,.36l-1.03.18c-1.58.28-2.82,1.52-3.1,3.1Z"/>
  <path class="cls-1" d="M3106.75,2049.88l-.09.51c-.01.08-.13.08-.15,0l-.09-.51c-.11-.64-.61-1.13-1.25-1.25l-.51-.09c-.08-.01-.08-.13,0-.15l.51-.09c.64-.11,1.13-.61,1.25-1.25l.09-.51c.01-.08.13-.08.15,0l.09.51c.11.64.61,1.13,1.25,1.25l.51.09c.08.01.08.13,0,.15l-.51.09c-.64.11-1.13.61-1.25,1.25Z"/>
  <path class="cls-1" d="M2695.36,1648.47l-.37,2.05c-.03.16-.26.16-.29,0l-.37-2.05c-.23-1.29-1.24-2.29-2.52-2.52l-2.05-.37c-.16-.03-.16-.26,0-.29l2.05-.37c1.29-.23,2.29-1.24,2.52-2.52l.37-2.05c.03-.16.26-.16.29,0l.37,2.05c.23,1.29,1.24,2.29,2.52,2.52l2.05.37c.16.03.16.26,0,.29l-2.05.37c-1.29.23-2.29,1.24-2.52,2.52Z"/>
  <path class="cls-1" d="M2876.28,1444.59l-.09.52c-.01.06-.1.06-.11,0l-.09-.52c-.09-.48-.46-.85-.94-.94l-.52-.09c-.06-.01-.06-.1,0-.11l.52-.09c.48-.09.85-.46.94-.94l.09-.52c.01-.06.1-.06.11,0l.09.52c.09.48.46.85.94.94l.52.09c.06.01.06.1,0,.11l-.52.09c-.48.09-.85.46-.94.94Z"/>
  <path class="cls-1" d="M2296.48,1957.52l-.12.66c-.02.13-.21.13-.23,0l-.12-.66c-.18-1.01-.97-1.8-1.98-1.98l-.66-.12c-.13-.02-.13-.21,0-.23l.66-.12c1.01-.18,1.8-.97,1.98-1.98l.12-.66c.02-.13.21-.13.23,0l.12.66c.18,1.01.97,1.8,1.98,1.98l.66.12c.13.02.13.21,0,.23l-.66.12c-1.01.18-1.8.97-1.98,1.98Z"/>
  <path class="cls-1" d="M1188.03,1906.41h0s-.07.04-.08,0h0c-.06-.34-.33-.61-.67-.67h0s-.04-.07,0-.08h0c.34-.06.61-.33.67-.67h0s.07-.04.08,0h0c.06.34.33.61.67.67h0s.04.07,0,.08h0c-.34.06-.61.33-.67.67Z"/>
  <path class="cls-1" d="M1011.95,1609.42l-.12.65c-.03.17-.28.17-.31,0l-.12-.65c-.24-1.36-1.3-2.42-2.66-2.66l-.65-.12c-.17-.03-.17-.28,0-.31l.65-.12c1.36-.24,2.42-1.3,2.66-2.66l.12-.65c.03-.17.28-.17.31,0l.12.65c.24,1.36,1.3,2.42,2.66,2.66l.65.12c.17.03.17.28,0,.31l-.65.12c-1.36.24-2.42,1.3-2.66,2.66Z"/>
  <path class="cls-1" d="M986.21,1626.64l-.26,1.47c-.04.22-.35.22-.39,0l-.26-1.47c-.31-1.71-1.64-3.04-3.35-3.35l-1.47-.26c-.22-.04-.22-.35,0-.39l1.47-.26c1.71-.31,3.04-1.64,3.35-3.35l.26-1.47c.04-.22.35-.22.39,0l.26,1.47c.31,1.71,1.64,3.04,3.35,3.35l1.47.26c.22.04.22.35,0,.39l-1.47.26c-1.71.31-3.04,1.64-3.35,3.35Z"/>
  <path class="cls-1" d="M608.75,1711.85l-.1.54c-.01.07-.12.07-.13,0l-.1-.54c-.1-.58-.55-1.03-1.13-1.13l-.54-.1c-.07-.01-.07-.12,0-.13l.54-.1c.58-.1,1.03-.55,1.13-1.13l.1-.54c.01-.07.12-.07.13,0l.1.54c.1.58.55,1.03,1.13,1.13l.54.1c.07.01.07.12,0,.13l-.54.1c-.58.1-1.03.55-1.13,1.13Z"/>
  <path class="cls-1" d="M415.35,1767.93l-.24,1.36c-.02.12-.19.12-.21,0l-.24-1.36c-.17-.92-.89-1.65-1.81-1.81l-1.36-.24c-.12-.02-.12-.19,0-.21l1.36-.24c.92-.17,1.65-.89,1.81-1.81l.24-1.36c.02-.12.19-.12.21,0l.24,1.36c.17.92.89,1.65,1.81,1.81l1.36.24c.12.02.12.19,0,.21l-1.36.24c-.92.17-1.65.89-1.81,1.81Z"/>
  <path class="cls-1" d="M578.1,1466.96l-1.1,6.15c-.05.26-.41.26-.46,0l-1.1-6.15c-.36-2.01-1.93-3.58-3.94-3.94l-6.15-1.1c-.26-.05-.26-.41,0-.46l6.15-1.1c2.01-.36,3.58-1.93,3.94-3.94l1.1-6.15c.05-.26.41-.26.46,0l1.1,6.15c.36,2.01,1.93,3.58,3.94,3.94l6.15,1.1c.26.05.26.41,0,.46l-6.15,1.1c-2.01.36-3.58,1.93-3.94,3.94Z"/>
  <path class="cls-1" d="M3378.64,1678.7l-.23,1.28c-.02.1-.16.1-.18,0l-.23-1.28c-.14-.78-.75-1.39-1.53-1.53l-1.28-.23c-.1-.02-.1-.16,0-.18l1.28-.23c.78-.14,1.39-.75,1.53-1.53l.23-1.28c.02-.1.16-.1.18,0l.23,1.28c.14.78.75,1.39,1.53,1.53l1.28.23c.1.02.1.16,0,.18l-1.28.23c-.78.14-1.39.75-1.53,1.53Z"/>
  <path class="cls-1" d="M3364.29,1731.22l-.69,3.86c-.06.34-.54.34-.6,0l-.69-3.86c-.47-2.63-2.53-4.68-5.16-5.16l-3.86-.69c-.34-.06-.34-.54,0-.6l3.86-.69c2.63-.47,4.68-2.53,5.16-5.16l.69-3.86c.06-.34.54-.34.6,0l.69,3.86c.47,2.63,2.53,4.68,5.16,5.16l3.86.69c.34.06.34.54,0,.6l-3.86.69c-2.63.47-4.68,2.53-5.16,5.16Z"/>
  <path class="cls-1" d="M782.6,1413.88h0c-.01.06-.09.06-.1,0h0c-.08-.44-.43-.79-.87-.87h0c-.06-.01-.06-.09,0-.1h0c.44-.08.79-.43.87-.87h0c.01-.06.09-.06.1,0h0c.08.44.43.79.87.87h0c.06.01.06.09,0,.1h0c-.44.08-.79.43-.87.87Z"/>
  <path class="cls-1" d="M823.79,1694.54l-.18,1.03c-.06.34-.55.34-.61,0l-.18-1.03c-.48-2.68-2.58-4.78-5.26-5.26l-1.03-.18c-.34-.06-.34-.55,0-.61l1.03-.18c2.68-.48,4.78-2.58,5.26-5.26l.18-1.03c.06-.34.55-.34.61,0l.18,1.03c.48,2.68,2.58,4.78,5.26,5.26l1.03.18c.34.06.34.55,0,.61l-1.03.18c-2.68.48-4.78,2.58-5.26,5.26Z"/>
  <path class="cls-1" d="M297.45,1288.53l-.05.25c-.02.1-.16.1-.18,0l-.05-.25c-.14-.8-.77-1.42-1.56-1.56l-.25-.05c-.1-.02-.1-.16,0-.18l.25-.05c.8-.14,1.42-.77,1.56-1.56l.05-.25c.02-.1.16-.1.18,0l.05.25c.14.8.77,1.42,1.56,1.56l.25.05c.1.02.1.16,0,.18l-.25.05c-.8.14-1.42.77-1.56,1.56Z"/>
  <path class="cls-1" d="M2409.24,1516.26l-.03.16c-.02.09-.14.09-.16,0l-.03-.16c-.12-.69-.67-1.24-1.36-1.36l-.16-.03c-.09-.02-.09-.14,0-.16l.16-.03c.69-.12,1.24-.67,1.36-1.36l.03-.16c.02-.09.14-.09.16,0l.03.16c.12.69.67,1.24,1.36,1.36l.16.03c.09.02.09.14,0,.16l-.16.03c-.69.12-1.24.67-1.36,1.36Z"/>
  <path class="cls-1" d="M537.01,1628.26h0c-.04.2-.32.2-.36,0h0c-.28-1.56-1.5-2.78-3.06-3.06h0c-.2-.04-.2-.32,0-.36h0c1.56-.28,2.78-1.5,3.06-3.06h0c.04-.2.32-.2.36,0h0c.28,1.56,1.5,2.78,3.06,3.06h0c.2.04.2.32,0,.36h0c-1.56.28-2.78,1.5-3.06,3.06Z"/>
  <path class="cls-1" d="M383.2,1720.32l-.04.25c-.03.14-.23.14-.26,0l-.04-.25c-.2-1.13-1.08-2.01-2.21-2.21l-.25-.04c-.14-.03-.14-.23,0-.26l.25-.04c1.13-.2,2.01-1.08,2.21-2.21l.04-.25c.03-.14.23-.14.26,0l.04.25c.2,1.13,1.08,2.01,2.21,2.21l.25.04c.14.03.14.23,0,.26l-.25.04c-1.13.2-2.01,1.08-2.21,2.21Z"/>
  <path class="cls-1" d="M3771.96,1618.01l-.06.34c0,.06-.09.06-.1,0l-.06-.34c-.08-.44-.42-.78-.86-.86l-.34-.06c-.06,0-.06-.09,0-.1l.34-.06c.44-.08.78-.42.86-.86l.06-.34c0-.06.09-.06.1,0l.06.34c.08.44.42.78.86.86l.34.06c.06,0,.06.09,0,.1l-.34.06c-.44.08-.78.42-.86.86Z"/>
  <path class="cls-1" d="M3578.68,1605.61l-.07.37c-.01.06-.09.06-.1,0l-.07-.37c-.08-.45-.44-.81-.89-.89l-.37-.07c-.06-.01-.06-.09,0-.1l.37-.07c.45-.08.81-.44.89-.89l.07-.37c.01-.06.09-.06.1,0l.07.37c.08.45.44.81.89.89l.37.07c.06.01.06.09,0,.1l-.37.07c-.45.08-.81.44-.89.89Z"/>
  <path class="cls-1" d="M3592.31,1895.52l-1.95,10.88c-.07.38-.62.38-.68,0l-1.95-10.88c-.54-2.99-2.88-5.34-5.87-5.87l-10.88-1.95c-.38-.07-.38-.62,0-.68l10.88-1.95c2.99-.54,5.34-2.88,5.87-5.87l1.95-10.88c.07-.38.62-.38.68,0l1.95,10.88c.54,2.99,2.88,5.34,5.87,5.87l10.88,1.95c.38.07.38.62,0,.68l-10.88,1.95c-2.99.54-5.34,2.88-5.87,5.87Z"/>
  <path class="cls-1" d="M971.12,2051.68l-1.14,6.33c-.04.22-.36.22-.4,0l-1.14-6.33c-.31-1.74-1.68-3.11-3.42-3.42l-6.33-1.14c-.22-.04-.22-.36,0-.4l6.33-1.14c1.74-.31,3.11-1.68,3.42-3.42l1.14-6.33c.04-.22.36-.22.4,0l1.14,6.33c.31,1.74,1.68,3.11,3.42,3.42l6.33,1.14c.22.04.22.36,0,.4l-6.33,1.14c-1.74.31-3.11,1.68-3.42,3.42Z"/>
  <path class="cls-1" d="M3478.4,1511.37l-1.01,5.65c-.04.2-.32.2-.36,0l-1.01-5.65c-.28-1.55-1.49-2.77-3.05-3.05l-5.65-1.01c-.2-.04-.2-.32,0-.36l5.65-1.01c1.55-.28,2.77-1.49,3.05-3.05l1.01-5.65c.04-.2.32-.2.36,0l1.01,5.65c.28,1.55,1.49,2.77,3.05,3.05l5.65,1.01c.2.04.2.32,0,.36l-5.65,1.01c-1.55.28-2.77,1.49-3.05,3.05Z"/>
  <path class="cls-1" d="M2805.3,1737.98l-.36,1.99c-.04.24-.38.24-.43,0l-.36-1.99c-.33-1.86-1.79-3.32-3.66-3.66l-1.99-.36c-.24-.04-.24-.38,0-.43l1.99-.36c1.86-.33,3.32-1.79,3.66-3.66l.36-1.99c.04-.24.38-.24.43,0l.36,1.99c.33,1.86,1.79,3.32,3.66,3.66l1.99.36c.24.04.24.38,0,.43l-1.99.36c-1.86.33-3.32,1.79-3.66,3.66Z"/>
  <path class="cls-1" d="M2725.75,2006.78l-.64,3.59c-.04.2-.33.2-.36,0l-.64-3.59c-.28-1.58-1.52-2.82-3.1-3.1l-3.59-.64c-.2-.04-.2-.33,0-.36l3.59-.64c1.58-.28,2.82-1.52,3.1-3.1l.64-3.59c.04-.2.33-.2.36,0l.64,3.59c.28,1.58,1.52,2.82,3.1,3.1l3.59.64c.2.04.2.33,0,.36l-3.59.64c-1.58.28-2.82,1.52-3.1,3.1Z"/>
  <path class="cls-1" d="M2529.33,2052.57l-.08.46c-.02.09-.15.09-.16,0l-.08-.46c-.13-.71-.68-1.26-1.39-1.39l-.46-.08c-.09-.02-.09-.15,0-.16l.46-.08c.71-.13,1.26-.68,1.39-1.39l.08-.46c.02-.09.15-.09.16,0l.08.46c.13.71.68,1.26,1.39,1.39l.46.08c.09.02.09.15,0,.16l-.46.08c-.71.13-1.26.68-1.39,1.39Z"/>
  <path class="cls-1" d="M2259.86,1914.28l-.29,1.64c-.02.13-.21.13-.23,0l-.29-1.64c-.18-1.02-.98-1.82-2-2l-1.64-.29c-.13-.02-.13-.21,0-.23l1.64-.29c1.02-.18,1.82-.98,2-2l.29-1.64c.02-.13.21-.13.23,0l.29,1.64c.18,1.02.98,1.82,2,2l1.64.29c.13.02.13.21,0,.23l-1.64.29c-1.02.18-1.82.98-2,2Z"/>
  <path class="cls-1" d="M1996.77,2099.81l-.02.11c-.03.17-.27.17-.3,0l-.02-.11c-.24-1.32-1.27-2.35-2.59-2.59l-.11-.02c-.17-.03-.17-.27,0-.3l.11-.02c1.32-.24,2.35-1.27,2.59-2.59l.02-.11c.03-.17.27-.17.3,0l.02.11c.24,1.32,1.27,2.35,2.59,2.59l.11.02c.17.03.17.27,0,.3l-.11.02c-1.32.24-2.35,1.27-2.59,2.59Z"/>
  <path class="cls-1" d="M1953.76,1756.56l-.04.21c-.03.16-.26.16-.28,0l-.04-.21c-.22-1.24-1.2-2.22-2.44-2.44l-.21-.04c-.16-.03-.16-.26,0-.28l.21-.04c1.24-.22,2.22-1.2,2.44-2.44l.04-.21c.03-.16.26-.16.28,0l.04.21c.22,1.24,1.2,2.22,2.44,2.44l.21.04c.16.03.16.26,0,.28l-.21.04c-1.24.22-2.22,1.2-2.44,2.44Z"/>
  <path class="cls-1" d="M1425.39,1874.21l-.04.21c-.02.08-.14.08-.15,0l-.04-.21c-.12-.66-.63-1.17-1.29-1.29l-.21-.04c-.08-.02-.08-.14,0-.15l.21-.04c.66-.12,1.17-.63,1.29-1.29l.04-.21c.02-.08.14-.08.15,0l.04.21c.12.66.63,1.17,1.29,1.29l.21.04c.08.02.08.14,0,.15l-.21.04c-.66.12-1.17.63-1.29,1.29Z"/>
  <path class="cls-1" d="M1269.67,2019.22l-.03.14c-.02.13-.2.13-.23,0l-.03-.14c-.18-.99-.96-1.77-1.95-1.95l-.14-.03c-.13-.02-.13-.2,0-.23l.14-.03c.99-.18,1.77-.96,1.95-1.95l.03-.14c.02-.13.2-.13.23,0l.03.14c.18.99.96,1.77,1.95,1.95l.14.03c.13.02.13.2,0,.23l-.14.03c-.99.18-1.77.96-1.95,1.95Z"/>
  <path class="cls-1" d="M1622,1755.28l-.27,1.49c-.02.09-.15.09-.17,0l-.27-1.49c-.13-.74-.71-1.31-1.44-1.44l-1.49-.27c-.09-.02-.09-.15,0-.17l1.49-.27c.74-.13,1.31-.71,1.44-1.44l.27-1.49c.02-.09.15-.09.17,0l.27,1.49c.13.74.71,1.31,1.44,1.44l1.49.27c.09.02.09.15,0,.17l-1.49.27c-.74.13-1.31.71-1.44,1.44Z"/>
  <path class="cls-1" d="M1123.89,1983.02l-.84,4.69c-.05.28-.45.28-.5,0l-.84-4.69c-.39-2.17-2.09-3.87-4.26-4.26l-4.69-.84c-.28-.05-.28-.45,0-.5l4.69-.84c2.17-.39,3.87-2.09,4.26-4.26l.84-4.69c.05-.28.45-.28.5,0l.84,4.69c.39,2.17,2.09,3.87,4.26,4.26l4.69.84c.28.05.28.45,0,.5l-4.69.84c-2.17.39-3.87,2.09-4.26,4.26Z"/>
  <path class="cls-1" d="M1141.73,1800.6l-.8,4.45c-.03.18-.29.18-.32,0l-.8-4.45c-.25-1.4-1.34-2.49-2.74-2.74l-4.45-.8c-.18-.03-.18-.29,0-.32l4.45-.8c1.4-.25,2.49-1.34,2.74-2.74l.8-4.45c.03-.18.29-.18.32,0l.8,4.45c.25,1.4,1.34,2.49,2.74,2.74l4.45.8c.18.03.18.29,0,.32l-4.45.8c-1.4.25-2.49,1.34-2.74,2.74Z"/>
  <path class="cls-1" d="M778.82,2033.49l-.32,1.77c-.02.11-.18.11-.2,0l-.32-1.77c-.16-.88-.85-1.57-1.73-1.73l-1.77-.32c-.11-.02-.11-.18,0-.2l1.77-.32c.88-.16,1.57-.85,1.73-1.73l.32-1.77c.02-.11.18-.11.2,0l.32,1.77c.16.88.85,1.57,1.73,1.73l1.77.32c.11.02.11.18,0,.2l-1.77.32c-.88.16-1.57.85-1.73,1.73Z"/>
  <path class="cls-1" d="M452.15,1806.95l-.13.73s-.08.05-.09,0l-.13-.73c-.07-.38-.37-.68-.75-.75l-.73-.13s-.05-.08,0-.09l.73-.13c.38-.07.68-.37.75-.75l.13-.73s.08-.05.09,0l.13.73c.07.38.37.68.75.75l.73.13s.05.08,0,.09l-.73.13c-.38.07-.68.37-.75.75Z"/>
  <path class="cls-1" d="M148.1,1795.93l-.03.18c-.01.07-.12.07-.13,0l-.03-.18c-.1-.58-.56-1.04-1.15-1.15l-.18-.03c-.07-.01-.07-.12,0-.13l.18-.03c.58-.1,1.04-.56,1.15-1.15l.03-.18c.01-.07.12-.07.13,0l.03.18c.1.58.56,1.04,1.15,1.15l.18.03c.07.01.07.12,0,.13l-.18.03c-.58.1-1.04.56-1.15,1.15Z"/>
  <path class="cls-1" d="M248.99,1699.79l-.98,5.47c-.08.46-.74.46-.82,0l-.98-5.47c-.65-3.6-3.46-6.41-7.06-7.06l-5.47-.98c-.46-.08-.46-.74,0-.82l5.47-.98c3.6-.65,6.41-3.46,7.06-7.06l.98-5.47c.08-.46.74-.46.82,0l.98,5.47c.65,3.6,3.46,6.41,7.06,7.06l5.47.98c.46.08.46.74,0,.82l-5.47.98c-3.6.65-6.41,3.46-7.06,7.06Z"/>
  <path class="cls-1" d="M84.58,1407.57l-.22,1.22c-.02.1-.16.1-.18,0l-.22-1.22c-.14-.8-.77-1.43-1.57-1.57l-1.22-.22c-.1-.02-.1-.16,0-.18l1.22-.22c.8-.14,1.43-.77,1.57-1.57l.22-1.22c.02-.1.16-.1.18,0l.22,1.22c.14.8.77,1.43,1.57,1.57l1.22.22c.1.02.1.16,0,.18l-1.22.22c-.8.14-1.43.77-1.57,1.57Z"/>
  <path class="cls-1" d="M3472.86,2110.56l-.97,5.39c-.05.26-.43.26-.47,0l-.97-5.39c-.37-2.07-1.99-3.69-4.06-4.06l-5.39-.97c-.26-.05-.26-.43,0-.47l5.39-.97c2.07-.37,3.69-1.99,4.06-4.06l.97-5.39c.05-.26.43-.26.47,0l.97,5.39c.37,2.07,1.99,3.69,4.06,4.06l5.39.97c.26.05.26.43,0,.47l-5.39.97c-2.07.37-3.69,1.99-4.06,4.06Z"/>
  <path class="cls-1" d="M3790.13,1942.92l-.07.37c-.01.07-.11.07-.12,0l-.07-.37c-.1-.53-.51-.95-1.04-1.04l-.37-.07c-.07-.01-.07-.11,0-.12l.37-.07c.53-.1.95-.51,1.04-1.04l.07-.37c.01-.07.11-.07.12,0l.07.37c.1.53.51.95,1.04,1.04l.37.07c.07.01.07.11,0,.12l-.37.07c-.53.1-.95.51-1.04,1.04Z"/>
  <path class="cls-1" d="M3183.2,1787.93h0c-.02.13-.22.13-.24,0h0c-.19-1.06-1.02-1.89-2.08-2.08h0c-.13-.02-.13-.22,0-.24h0c1.06-.19,1.89-1.02,2.08-2.08h0c.02-.13.22-.13.24,0h0c.19,1.06,1.02,1.89,2.08,2.08h0c.13.02.13.22,0,.24h0c-1.06.19-1.89,1.02-2.08,2.08Z"/>
  <path class="cls-1" d="M2932.01,1600.78l-.17.92c-.01.08-.13.08-.14,0l-.17-.92c-.11-.62-.6-1.11-1.22-1.22l-.92-.17c-.08-.01-.08-.13,0-.14l.92-.17c.62-.11,1.11-.6,1.22-1.22l.17-.92c.01-.08.13-.08.14,0l.17.92c.11.62.6,1.11,1.22,1.22l.92.17c.08.01.08.13,0,.14l-.92.17c-.62.11-1.11.6-1.22,1.22Z"/>
  <path class="cls-1" d="M2735.14,1890.74l-.11.64c-.03.17-.28.17-.31,0l-.11-.64c-.24-1.36-1.31-2.43-2.68-2.68l-.64-.11c-.17-.03-.17-.28,0-.31l.64-.11c1.36-.24,2.43-1.31,2.68-2.68l.11-.64c.03-.17.28-.17.31,0l.11.64c.24,1.36,1.31,2.43,2.68,2.68l.64.11c.17.03.17.28,0,.31l-.64.11c-1.36.24-2.43,1.31-2.68,2.68Z"/>
  <path class="cls-1" d="M2829.47,1822.07l-.24,1.33c-.03.16-.26.16-.29,0l-.24-1.33c-.23-1.27-1.22-2.27-2.5-2.5l-1.33-.24c-.16-.03-.16-.26,0-.29l1.33-.24c1.27-.23,2.27-1.22,2.5-2.5l.24-1.33c.03-.16.26-.16.29,0l.24,1.33c.23,1.27,1.22,2.27,2.5,2.5l1.33.24c.16.03.16.26,0,.29l-1.33.24c-1.27.23-2.27,1.22-2.5,2.5Z"/>
  <path class="cls-1" d="M2370.65,1567.21h0c-.05-.28-.45-.28-.5,0h0c-.39,2.18-2.1,3.89-4.28,4.28h0c-.28.05-.28.45,0,.5h0c2.18.39,3.89,2.1,4.28,4.28h0c.05.28.45.28.5,0h0c.39-2.18,2.1-3.89,4.28-4.28h0c.28-.05.28-.45,0-.5h0c-2.18-.39-3.89-2.1-4.28-4.28Z"/>
  <path class="cls-1" d="M2168.38,1790.91l-.24,1.33c-.02.1-.16.1-.18,0l-.24-1.33c-.14-.78-.75-1.38-1.52-1.52l-1.33-.24c-.1-.02-.1-.16,0-.18l1.33-.24c.78-.14,1.38-.75,1.52-1.52l.24-1.33c.02-.1.16-.1.18,0l.24,1.33c.14.78.75,1.38,1.52,1.52l1.33.24c.1.02.1.16,0,.18l-1.33.24c-.78.14-1.38.75-1.52,1.52Z"/>
  <path class="cls-1" d="M2148.89,1737.45l-.13.7c-.03.17-.27.17-.3,0l-.13-.7c-.23-1.3-1.25-2.31-2.54-2.54l-.7-.13c-.17-.03-.17-.27,0-.3l.7-.13c1.3-.23,2.31-1.25,2.54-2.54l.13-.7c.03-.17.27-.17.3,0l.13.7c.23,1.3,1.25,2.31,2.54,2.54l.7.13c.17.03.17.27,0,.3l-.7.13c-1.3.23-2.31,1.25-2.54,2.54Z"/>
  <path class="cls-1" d="M1923.37,2028.86l-.24,1.32c-.01.08-.13.08-.14,0l-.24-1.32c-.11-.61-.59-1.09-1.2-1.2l-1.32-.24c-.08-.01-.08-.13,0-.14l1.32-.24c.61-.11,1.09-.59,1.2-1.2l.24-1.32c.01-.08.13-.08.14,0l.24,1.32c.11.61.59,1.09,1.2,1.2l1.32.24c.08.01.08.13,0,.14l-1.32.24c-.61.11-1.09.59-1.2,1.2Z"/>
  <path class="cls-1" d="M1455.43,1830.37l-.54,2.98c-.02.13-.21.13-.23,0l-.54-2.98c-.18-1.03-.99-1.83-2.02-2.02l-2.98-.54c-.13-.02-.13-.21,0-.23l2.98-.54c1.03-.18,1.83-.99,2.02-2.02l.54-2.98c.02-.13.21-.13.23,0l.54,2.98c.18,1.03.99,1.83,2.02,2.02l2.98.54c.13.02.13.21,0,.23l-2.98.54c-1.03.18-1.83.99-2.02,2.02Z"/>
  <path class="cls-1" d="M976.97,1772l-.13.71c-.01.07-.12.07-.13,0l-.13-.71c-.1-.57-.55-1.01-1.12-1.12l-.71-.13c-.07-.01-.07-.12,0-.13l.71-.13c.57-.1,1.01-.55,1.12-1.12l.13-.71c.01-.07.12-.07.13,0l.13.71c.1.57.55,1.01,1.12,1.12l.71.13c.07.01.07.12,0,.13l-.71.13c-.57.1-1.01.55-1.12,1.12Z"/>
  <path class="cls-1" d="M1037.13,1666.07l-.4,2.24c-.04.25-.4.25-.45,0l-.4-2.24c-.35-1.95-1.87-3.47-3.82-3.82l-2.24-.4c-.25-.04-.25-.4,0-.45l2.24-.4c1.95-.35,3.47-1.87,3.82-3.82l.4-2.24c.04-.25.4-.25.45,0l.4,2.24c.35,1.95,1.87,3.47,3.82,3.82l2.24.4c.25.04.25.4,0,.45l-2.24.4c-1.95.35-3.47,1.87-3.82,3.82Z"/>
  <path class="cls-1" d="M61.11,1207.29l-.49,2.7c-.05.3-.48.3-.54,0l-.49-2.7c-.42-2.35-2.26-4.18-4.61-4.61l-2.7-.49c-.3-.05-.3-.48,0-.54l2.7-.49c2.35-.42,4.18-2.26,4.61-4.61l.49-2.7c.05-.3.48-.3.54,0l.49,2.7c.42,2.35,2.26,4.18,4.61,4.61l2.7.49c.3.05.3.48,0,.54l-2.7.49c-2.35.42-4.18,2.26-4.61,4.61Z"/>
  <path class="cls-1" d="M721.67,1908.02l-.05.29c-.02.09-.15.09-.16,0l-.05-.29c-.13-.71-.68-1.27-1.4-1.4l-.29-.05c-.09-.02-.09-.15,0-.16l.29-.05c.71-.13,1.27-.68,1.4-1.4l.05-.29c.02-.09.15-.09.16,0l.05.29c.13.71.68,1.27,1.4,1.4l.29.05c.09.02.09.15,0,.16l-.29.05c-.71.13-1.27.68-1.4,1.4Z"/>
  <path class="cls-1" d="M142.94,1861.36l-.18.99c-.02.11-.17.11-.19,0l-.18-.99c-.15-.84-.81-1.5-1.65-1.65l-.99-.18c-.11-.02-.11-.17,0-.19l.99-.18c.84-.15,1.5-.81,1.65-1.65l.18-.99c.02-.11.17-.11.19,0l.18.99c.15.84.81,1.5,1.65,1.65l.99.18c.11.02.11.17,0,.19l-.99.18c-.84.15-1.5.81-1.65,1.65Z"/>
  <path class="cls-1" d="M315.06,1843.82l-.28,1.57c-.02.09-.14.09-.16,0l-.28-1.57c-.12-.69-.67-1.24-1.36-1.36l-1.57-.28c-.09-.02-.09-.14,0-.16l1.57-.28c.69-.12,1.24-.67,1.36-1.36l.28-1.57c.02-.09.14-.09.16,0l.28,1.57c.12.69.67,1.24,1.36,1.36l1.57.28c.09.02.09.14,0,.16l-1.57.28c-.69.12-1.24.67-1.36,1.36Z"/>
  <path class="cls-1" d="M210.85,1653.5h0c-.02.1-.16.1-.18,0h0c-.14-.77-.75-1.38-1.52-1.52h0c-.1-.02-.1-.16,0-.18h0c.77-.14,1.38-.75,1.52-1.52h0c.02-.1.16-.1.18,0h0c.14.77.75,1.38,1.52,1.52h0c.1.02.1.16,0,.18h0c-.77.14-1.38.75-1.52,1.52Z"/>
  <path class="cls-1" d="M3417.91,2062.36l-.15.85c-.02.13-.21.13-.23,0l-.15-.85c-.18-1.02-.98-1.81-2-2l-.85-.15c-.13-.02-.13-.21,0-.23l.85-.15c1.02-.18,1.81-.98,2-2l.15-.85c.02-.13.21-.13.23,0l.15.85c.18,1.02.98,1.81,2,2l.85.15c.13.02.13.21,0,.23l-.85.15c-1.02.18-1.81.98-2,2Z"/>
  <path class="cls-1" d="M3314.09,1713.85l-.29,1.64c-.06.32-.52.32-.58,0l-.29-1.64c-.45-2.53-2.43-4.51-4.96-4.96l-1.64-.29c-.32-.06-.32-.52,0-.58l1.64-.29c2.53-.45,4.51-2.43,4.96-4.96l.29-1.64c.06-.32.52-.32.58,0l.29,1.64c.45,2.53,2.43,4.51,4.96,4.96l1.64.29c.32.06.32.52,0,.58l-1.64.29c-2.53.45-4.51,2.43-4.96,4.96Z"/>
  <path class="cls-1" d="M3155.99,1609.02l-.05.28s-.07.04-.08,0l-.05-.28c-.06-.35-.33-.62-.68-.68l-.28-.05s-.04-.07,0-.08l.28-.05c.35-.06.62-.33.68-.68l.05-.28s.07-.04.08,0l.05.28c.06.35.33.62.68.68l.28.05s.04.07,0,.08l-.28.05c-.35.06-.62.33-.68.68Z"/>
  <path class="cls-1" d="M2671.62,1899.89l-.34,1.91c-.03.15-.25.15-.27,0l-.34-1.91c-.22-1.2-1.15-2.14-2.35-2.35l-1.91-.34c-.15-.03-.15-.25,0-.27l1.91-.34c1.2-.22,2.14-1.15,2.35-2.35l.34-1.91c.03-.15.25-.15.27,0l.34,1.91c.22,1.2,1.15,2.14,2.35,2.35l1.91.34c.15.03.15.25,0,.27l-1.91.34c-1.2.22-2.14,1.15-2.35,2.35Z"/>
  <path class="cls-1" d="M2800.24,1492.9l-.14.79c-.02.09-.15.09-.17,0l-.14-.79c-.13-.72-.7-1.29-1.42-1.42l-.79-.14c-.09-.02-.09-.15,0-.17l.79-.14c.72-.13,1.29-.7,1.42-1.42l.14-.79c.02-.09.15-.09.17,0l.14.79c.13.72.7,1.29,1.42,1.42l.79.14c.09.02.09.15,0,.17l-.79.14c-.72.13-1.29.7-1.42,1.42Z"/>
  <path class="cls-1" d="M2216.48,2003.74l-.12.66c-.02.13-.21.13-.23,0l-.12-.66c-.18-1.01-.97-1.8-1.98-1.98l-.66-.12c-.13-.02-.13-.21,0-.23l.66-.12c1.01-.18,1.8-.97,1.98-1.98l.12-.66c.02-.13.21-.13.23,0l.12.66c.18,1.01.97,1.8,1.98,1.98l.66.12c.13.02.13.21,0,.23l-.66.12c-1.01.18-1.8.97-1.98,1.98Z"/>
  <path class="cls-1" d="M1667.38,1716.23h0s-.06.04-.07,0h0c-.05-.3-.29-.54-.59-.59h0s-.04-.06,0-.07h0c.3-.05.54-.29.59-.59h0s.06-.04.07,0h0c.05.3.29.54.59.59h0s.04.06,0,.07h0c-.3.05-.54.29-.59.59Z"/>
  <path class="cls-1" d="M684.27,1623.09l-.09.49c-.02.13-.21.13-.23,0l-.09-.49c-.18-1.02-.98-1.82-2-2l-.49-.09c-.13-.02-.13-.21,0-.23l.49-.09c1.02-.18,1.82-.98,2-2l.09-.49c.02-.13.21-.13.23,0l.09.49c.18,1.02.98,1.82,2,2l.49.09c.13.02.13.21,0,.23l-.49.09c-1.02.18-1.82.98-2,2Z"/>
  <path class="cls-1" d="M716.69,1866.17l-.22,1.21c-.03.18-.29.18-.32,0l-.22-1.21c-.25-1.41-1.36-2.51-2.77-2.77l-1.21-.22c-.18-.03-.18-.29,0-.32l1.21-.22c1.41-.25,2.51-1.36,2.77-2.77l.22-1.21c.03-.18.29-.18.32,0l.22,1.21c.25,1.41,1.36,2.51,2.77,2.77l1.21.22c.18.03.18.29,0,.32l-1.21.22c-1.41.25-2.51,1.36-2.77,2.77Z"/>
  <path class="cls-1" d="M533.96,1658.1l-.08.43c-.01.06-.09.06-.1,0l-.08-.43c-.08-.46-.44-.81-.89-.89l-.43-.08c-.06-.01-.06-.09,0-.1l.43-.08c.46-.08.81-.44.89-.89l.08-.43c.01-.06.09-.06.1,0l.08.43c.08.46.44.81.89.89l.43.08c.06.01.06.09,0,.1l-.43.08c-.46.08-.81.44-.89.89Z"/>
  <path class="cls-1" d="M504.58,2067.03l-.23,1.26c-.02.11-.18.11-.2,0l-.23-1.26c-.15-.86-.82-1.53-1.68-1.68l-1.26-.23c-.11-.02-.11-.18,0-.2l1.26-.23c.86-.15,1.53-.82,1.68-1.68l.23-1.26c.02-.11.18-.11.2,0l.23,1.26c.15.86.82,1.53,1.68,1.68l1.26.23c.11.02.11.18,0,.2l-1.26.23c-.86.15-1.53.82-1.68,1.68Z"/>
  <path class="cls-1" d="M279.06,1825.41l-1.06,5.91c-.04.25-.4.25-.44,0l-1.06-5.91c-.35-1.93-1.85-3.44-3.78-3.78l-5.91-1.06c-.25-.04-.25-.4,0-.44l5.91-1.06c1.93-.35,3.44-1.85,3.78-3.78l1.06-5.91c.04-.25.4-.25.44,0l1.06,5.91c.35,1.93,1.85,3.44,3.78,3.78l5.91,1.06c.25.04.25.4,0,.44l-5.91,1.06c-1.93.35-3.44,1.85-3.78,3.78Z"/>
  <path class="cls-1" d="M3387.75,1710.92l-.37,2.07c-.03.16-.26.16-.29,0l-.37-2.07c-.23-1.26-1.21-2.24-2.47-2.47l-2.07-.37c-.16-.03-.16-.26,0-.29l2.07-.37c1.26-.23,2.24-1.21,2.47-2.47l.37-2.07c.03-.16.26-.16.29,0l.37,2.07c.23,1.26,1.21,2.24,2.47,2.47l2.07.37c.16.03.16.26,0,.29l-2.07.37c-1.26.23-2.24,1.21-2.47,2.47Z"/>
  <path class="cls-1" d="M3088.68,1698.08l-.94,5.22c-.08.45-.73.45-.81,0l-.94-5.22c-.64-3.55-3.42-6.33-6.97-6.97l-5.22-.94c-.45-.08-.45-.73,0-.81l5.22-.94c3.55-.64,6.33-3.42,6.97-6.97l.94-5.22c.08-.45.73-.45.81,0l.94,5.22c.64,3.55,3.42,6.33,6.97,6.97l5.22.94c.45.08.45.73,0,.81l-5.22.94c-3.55.64-6.33,3.42-6.97,6.97Z"/>
  <path class="cls-1" d="M695.39,1736.01h0c-.01.07-.11.07-.13,0h0c-.1-.55-.53-.98-1.07-1.07h0c-.07-.01-.07-.11,0-.13h0c.55-.1.98-.53,1.07-1.07h0c.01-.07.11-.07.13,0h0c.1.55.53.98,1.07,1.07h0c.07.01.07.11,0,.13h0c-.55.1-.98.53-1.07,1.07Z"/>
  <path class="cls-1" d="M702.42,1589.92l-.13.72c-.04.24-.39.24-.43,0l-.13-.72c-.34-1.87-1.8-3.34-3.67-3.67l-.72-.13c-.24-.04-.24-.39,0-.43l.72-.13c1.87-.34,3.34-1.8,3.67-3.67l.13-.72c.04-.24.39-.24.43,0l.13.72c.34,1.87,1.8,3.34,3.67,3.67l.72.13c.24.04.24.39,0,.43l-.72.13c-1.87.34-3.34,1.8-3.67,3.67Z"/>
  <path class="cls-1" d="M39.62,1217.07l-.07.36c-.03.15-.24.15-.26,0l-.07-.36c-.21-1.15-1.11-2.05-2.26-2.26l-.36-.07c-.15-.03-.15-.24,0-.26l.36-.07c1.15-.21,2.05-1.11,2.26-2.26l.07-.36c.03-.15.24-.15.26,0l.07.36c.21,1.15,1.11,2.05,2.26,2.26l.36.07c.15.03.15.24,0,.26l-.36.07c-1.15.21-2.05,1.11-2.26,2.26Z"/>
  <path class="cls-1" d="M2511.01,1782.75l-.02.13c-.01.07-.11.07-.13,0l-.02-.13c-.1-.56-.54-.99-1.09-1.09l-.13-.02c-.07-.01-.07-.11,0-.13l.13-.02c.56-.1.99-.54,1.09-1.09l.02-.13c.01-.07.11-.07.13,0l.02.13c.1.56.54.99,1.09,1.09l.13.02c.07.01.07.11,0,.13l-.13.02c-.56.1-.99.54-1.09,1.09Z"/>
  <path class="cls-1" d="M542,1609.14h0c-.02.13-.21.13-.23,0h0c-.18-1.03-.99-1.83-2.01-2.01h0c-.13-.02-.13-.21,0-.23h0c1.03-.18,1.83-.99,2.01-2.01h0c.02-.13.21-.13.23,0h0c.18,1.03.99,1.83,2.01,2.01h0c.13.02.13.21,0,.23h0c-1.03.18-1.83.99-2.01,2.01Z"/>
  <path class="cls-1" d="M684.52,1698.14l-.04.22c-.02.13-.21.13-.23,0l-.04-.22c-.18-1-.97-1.79-1.97-1.97l-.22-.04c-.13-.02-.13-.21,0-.23l.22-.04c1-.18,1.79-.97,1.97-1.97l.04-.22c.02-.13.21-.13.23,0l.04.22c.18,1,.97,1.79,1.97,1.97l.22.04c.13.02.13.21,0,.23l-.22.04c-1,.18-1.79.97-1.97,1.97Z"/>
</svg>