<?xml version="1.0" encoding="UTF-8"?>
<svg id="Layer_1" xmlns="http://www.w3.org/2000/svg" viewBox="0 0 3840 2160">
  <defs>
    <style>
      .cls-1, .cls-2 {
        fill: #ffa6a6;
      }

      .cls-2 {
        opacity: .5;
      }
    </style>
  </defs>
  <path class="cls-1" d="M.14,1817.96c5.38,1.7,10.81-.32,16.21.19,13.12,1.24,25.47,5.35,37.64,10.11,1.63.64,3.25,2.68,3.49,3.45,2.84,9.15,10.26,7.75,16.81,7.32,14.97-.97,29.47,2.39,42.55,8.3,6.66,3.01,12.66,4.56,19.59,5.45,6.03.77,10.28,4.45,14.38,9.85,5.49,7.22,7.05,15.47,10.49,23.19,1.44,3.22,1.67,5.91-.66,8.63-2.79-.23-5.84-2.8-8.3.03-4.33,4.95-8.53,3.32-13.01.48-3.61-2.28-7.74-2.93-11.89-3.39-9.48-7.62-17.61-16.92-28.23-23.12-2.93-1.71-6.2-3.88-9.68-2.01-1.51.81-2.86,3.43-1.77,5.2,2.35,3.82,1.64,8.04,2.47,12.04,1.33,6.34-1.72,11.42-8.48,12.05-5.43.51-11.01.57-16.42-.07-7.38-.88-13.11-9.27-11.42-17.43.72-3.47-.62-7.31,2.02-10.57,1.49-1.84.4-4.61-.92-6.07-9.82-10.89-19.55-22.06-33.66-27.66-6.75-2.68-13.72-5.46-21.23-2.46v-13.5Z"/>
  <path class="cls-1" d="M337.47,1822.98c-7.66-4.15-13.83-10.27-20.55-15.67-3.81-3.06-6.93-4.76-6.9,2.32.02,3.87-3.16,4.88-5.07,4.39-5.07-1.31-10.59.57-15.31-2.27-4.02-2.42-8.45-1.05-11.25.92-10.27,7.22-21.31,13.73-28.49,24.59-3.2-.2-6.45-.09-9.58-.65-9.36-1.68-15.9,2.59-21.27,9.59-5.85,4.31-10.7,9.63-15.37,15.13-5.52,4.85-.61,9.26.59,13.82-.29,3.06-2.37,3.66-5,4.52-6.64,2.18-13.39,1.49-20.01,1.09-7.54-.46-12.04-12.07-6.17-17.72,5.94-5.72,8.37-13.83,15.64-18.7,7.52-5.05,14.48-10.87,22.98-14.34,8.79.9,18.52,5.01,23.4-7.15.35-.88,2.24-1.01,3.06-1.85,1.8-1.84,5.09-2.43,5.06-5.84,11.76-9.59,25.77-14.52,39.63-20.08,6.55-2.63,13.15-5.42,19.71-8.16,12.12-5.06,27.62.21,36.45,10.35.08.98.51,1.39,1.48.91,1.03-.47,2.05-.93,3.08-1.4,2.75,3.33,5.06,7.09,9.05,9.19-1.46,3.3,1.54,5.79,1.6,8.82-.76,5.42-2.74,8.91-9.24,6.67-2.55-.88-5.4-.88-7.52,1.53Z"/>
  <path class="cls-1" d="M2261.65,1912.66c-7.41-.94-14.42,2.66-21.82,1.89-6.03-.62-12.91.73-14.56-8.13-1.42-7.67-7.85-11.41-13.84-14.71-10.2-5.62-21.78-3.11-32.73-3.78-4.39-.27-8.44,2.55-11.6,7.55-4.54,7.17-13.23,2.69-20.08,3.24-4.32.34-8.07-1.84-10.1-6.06-1.83-3.81,2.1-5.92,3.65-6.75,14.82-7.98,30.84-11.8,47.63-10.23,4.36.41,7.37-2.03,11-2.12,14.86-.38,28.93,2.28,41.2,11.55,1.78,1.34,3.88,2.25,4.74,4.37,2.52,6.26,6.44,10.16,13.8,9.84,2.82-.12,5.7.99,8.56,1.53-.11,4.85,5.8,12.67-5.84,11.81Z"/>
  <path class="cls-1" d="M426.77,1849.26c-.07-.86-.15-1.71-.22-2.57-1.41-2.09.23-6.01-3.89-6.48-.9-3.57-4.12-6.2-4.12-10.14-5.75-13.08-7.3-13.87-14.61-12.22-7.29-9.09-15.13-17.44-27.81-18.14-2.85-.16-5.76.71-8.65,1.11-2.89-.24-5.77-.58-8.67-.7-4.16-.17-7.05-1.77-7.71-6.21,15.58-8.17,32.08-9.31,48.87-5.48,13.05,2.98,24.16,10.53,33.02,19.99,4.29,4.59,6.13,11.71,11.04,16.84,6.21,6.5,5.61,15.69,6.52,24.1-7.94,2.62-15.86,1.67-23.78-.1Z"/>
  <path class="cls-1" d="M910.6,1820.8c-7.19,1.75-14.52,1.98-21.72.7-5.56-.98-6.03-3.72-5.33-9.78.64-5.46.11-11.19-.75-16.66-.65-4.15-3.32-6.48-8.16-4.48-3.39,1.4-7.04,2.18-10.57,3.23-1.3-3.29-3.53-2.21-6.12-1.71-8.02,1.57-16.12,2.72-24.57,4.09,1.57-5.66,8.12-5.32,9.74-9.98,4.59-1.57,9.46-2.62,13.72-4.83,12.03-6.24,24.83-6.13,37.7-5.13,7.79.6,15.41,9.7,16.01,18.15.75,10.54,1.85,12.05,12.64,13.11,3.38.33,4.14,2.98,6.35,4.17-2.31,6.75-6.94,9.3-13.97,8.09-1.55-.27-3.31.66-4.97,1.03Z"/>
  <path class="cls-2" d="M843.12,1786.2c-1.62,4.65-8.17,4.32-9.74,9.98,8.45-1.37,16.55-2.52,24.57-4.09,2.58-.5,4.81-1.58,6.12,1.71-7.27,3.33-13.58,9-22.35,8.66-3.42-.13-6.72.54-9.29-2.77-2.29-2.94-5.61-1.4-8.16-.49-18.77,6.71-37.04,14.39-50.97,29.47-2.8,3.03-5.26,6.39-7.78,9.66-1.46,1.89-3.15,3.08-5.64,3.12-2.96.05-6.51,1.09-8.56-1.15-2.45-2.69,0-7.15,1.18-8.65,2.83-3.6,4.73-7.77,7.98-11.25,17.59-18.87,39.71-28.79,64.23-34.39,6.07-1.39,12.27.12,18.41.18Z"/>
  <path class="cls-2" d="M1210.38,2033.84c14.09-.25,27.04,2.77,39.55,9.91,4.69,2.67,12.14.9,18.3.5,9.07-.58,16.66,3.04,24.18,7.3,2.05,1.16,3.91,2.73,3.29,4.9-.52,1.8-2.89,2.71-4.99,2.6-5.47-.27-11.02-.21-16.38-1.16-11.07-1.94-22.22-.58-33.3-1.47-1.88-.15-3.65.16-5.52-1.41-2.29-1.92-1.18-6.3-6.45-6.33-13.95-.08-28.32-6.47-41.4,3.34-4.16,3.12-8.78,2.56-12.79,1.21-3.15-1.06-6.34-3.26-1.05-7.74,10.81-9.17,23.25-11.37,36.58-11.65Z"/>
  <path class="cls-1" d="M490.67,1828.97c13.67-2.12,24.51,1.62,30.84,14.81.9,1.87,2.82,2.61,4.61,3.31,7.4,2.9,11.42,8.7,13.94,15.86-6.46.48-12.92,1.39-19.38-.05-6.4-3.19-12.93-6.18-18.56-10.68-2.3-1.84-4.09-2.27-7.07-.62-6.89,3.83-14.42,2.34-20.67-1.09-4.04-2.22-4.13-8.09-4.16-12.89,5.38-2.67,10.24-6.62,16.77-6.4,1.4.05,2.89-.76,3.66-2.26Z"/>
  <path class="cls-1" d="M2302.01,1951.56c2.6,5.22,5.41,10.35,7.73,15.7,1.75,4.03-6.12,14.58-11.05,15.27-10.28,1.43-12.05-.64-13.02-11.63-.42-4.73.17-10.62-6.78-13.06-3.36-1.18-5.45-3.98-2.81-9.66,2.4-5.15,5.94-10.27,6.84-16.22,5.36-3.65,11.14-6.3,17.62-7.25,2,.24,2.22,1.29,1.29,2.86-1.5.61-2.26,1.72-1.5,3.23.75,1.48,2.3,1.22,3.67,1.14-3.14,5.12-2.35,11-3.23,16.55-.64.66-1.92,1.48-1.81,1.97.35,1.52,1.85,1.14,3.04,1.12Z"/>
  <path class="cls-1" d="M1357.6,1881.04c-5.83,1.94-11.22,2.77-16.79-1.63-4.92-3.88-9.35,1.26-12.95,3.39-5.09,3-10.72,5.67-14.43,11.09-2.34,3.42-19.9,2.8-22.51-.33-.65-.78-3.03-2.69-.56-4.63,5.46-4.3,7.65-12.7,14.67-14.47,16.15-4.07,31.74-13.47,49.4-6.76,1.18,4.41,5.6,8.06,3.17,13.33Z"/>
  <path class="cls-1" d="M1108.6,1856.76c-7.68-5-16.29-4.64-24.88-4.28-4.21.18-7.4-.83-9.98-4.68-3.84-5.73-10.03-4.56-15.78-4.09-4.24-1.2-8.73-2.11-9.37-7.7,15.47-6.24,30.7-7.69,45.4,2.19.78.52,1.9.96,2.78.84,12.39-1.73,22.09,3.54,30.74,11.62-3.83,6.58-9.01,8.9-16.23,5.32-.62-.3-1.78.49-2.68.77Z"/>
  <path class="cls-1" d="M1718.97,2058.15c-7.58-1.64-14.24-5.46-20.94-9.08-10.7-5.78-22.48-8.44-33.94-12.06-1.22-.38-3.36.41-2.89-2.09.21-1.15.61-2.9,1.39-3.22,12.31-5.01,24.8-8.13,36.81.47,5.86,4.19,12.24,7.2,19.01,8.95,6.42,1.66,10.6,5.53,14.32,10.44-.32,5.3-3.51,6.62-8.2,6.03-1.87-.24-3.9-1.44-5.56.56Z"/>
  <path class="cls-1" d="M1648.47,1882.36c13.97-8.7,28.97-13.17,45.63-12.31,9.51.49,18.99-1.89,28.67.27,3.86.86,6.83,4.29,11.09,3.4-2.28,2.95-4.92,5.73-4.32,9.93-21.21-3.21-42.36-5.11-62.95,3.34-6.09-1.35-13.59,2.81-18.12-4.63Z"/>
  <path class="cls-1" d="M592.51,1858.9c1.68.2,4.31-.2,4.89.71,5.06,7.92,13.96,8.46,21.5,11.11,8.9,3.12,10.5,9.91,11.29,17.68-7.58,2.89-15.18,1.74-22.79.16-3.66-5.98-9.27-6.69-15.63-6.29-4.26.27-8.44-.56-8.1-6.53.21-3.7-4.1-4.76-4.78-7.97.95-5.87,3.27-9.8,10.3-7.83.94.26,2.21-.67,3.32-1.05Z"/>
  <path class="cls-2" d="M1215.15,1904.93c-13.14-1.04-26.14,3.53-39.33,6.22-5.38,1.09-9.59,6.53-16.18,5.32-2.56-.47-5.36-.37-5.67-3.42-.27-2.72,1.33-5.21,3.94-6.37,10.56-4.71,21.1-10.89,32.85-10.2,13.39.79,26.42-1.8,39.65-1.84,1.94,0,3.87.84,5.82,1.09,2.34.31,2.61,2.25,2.83,3.81.29,2-1.8,1.74-2.98,2.45-6.39,3.86-13.36,3.12-20.93,2.92Z"/>
  <path class="cls-2" d="M1357.6,1881.04c2.43-5.27-1.99-8.92-3.17-13.33,6.94-2.75,13.8-5.77,20.85-8.18,13.43-4.6,26.15-2.61,38.15,4.83,2.62,1.63,5.66,3.29,5.05,6.63-.78,4.24-4.51,1.46-6.88,1.88-5.34.94-10.34-1.24-15.28-2.58-13.09-3.53-23.97.87-34.23,8.31-1.41,1.02-2.62,2.32-4.49,2.44Z"/>
  <path class="cls-1" d="M988.47,1840.51c-4.12,1.03-2.52-4.78-5.76-4.8,1.22-4.04-2.2-5.39-4.55-6.24-3.34-1.22-6.12-3.04-8.89-5.07,6.52-2.49,12.99-5.13,19.58-7.43,9.08-3.17,21.78,8.14,20.83,18.4-.15,1.65-.25,3.31-.37,4.97-6.95.06-13.89.12-20.84.18Z"/>
  <path class="cls-1" d="M2527.24,1968.62c-13.25,9.08-28.34,8.61-43.37,8.2-2.65-.07-6.18-.3-6.21-4.25-.03-3.27,2-5.11,5.26-6.14,12.59-3.97,25.5-6.1,38.6-7.23,3.64,2.09,5.19,5.44,5.72,9.42Z"/>
  <path class="cls-2" d="M1317.94,2086.34c-10.1-1.48-20.49-2.37-29.68-8.03-3.19-1.97-5.97-4.56-5.1-8.26,1.02-4.33,5.57-5.8,9.26-6.94,2.8-.87,5.58-.42,7.84,3.42,3.09,5.25,10.1,5.47,15.31,8.08,1.53.77,3.43.85,4.91,1.69,3,1.71,7.66,3.02,6.31,7.4-1.13,3.65-5.57,2.07-8.84,2.64Z"/>
  <path class="cls-2" d="M1584.87,1886.05c7.46,0,14.92-.19,22.36.14,1.84.08,4.5.52,4.81,3.63.32,3.25-2.27,3.8-4.16,4.13-12.64,2.25-25.24,5.39-38.24,2.78-1.45-.29-3-.34-4.35-.9-2.95-1.21-6.8-2.78-6.35-6.14.38-2.8,4.02-3.92,7.31-3.86,6.2.11,12.41.03,18.61.03,0,.06,0,.12,0,.19Z"/>
  <path class="cls-2" d="M2067.7,1918.73c1.99,0,3.98-.09,5.96.02,3.22.19,7.04.22,7.06,4.62.01,4.02-4.44,5.05-6.79,5.13-11.26.4-21.83,3.29-32.32,7.01-2,.71-4.44.15-6.67.27-2.41.13-3.86-1.42-4.51-3.24-.81-2.24.99-3.87,2.75-4.68,10.97-5.05,22.04-9.86,34.53-9.13Z"/>
  <path class="cls-2" d="M2596.08,1927.18c3.52-1.73,4.12,4.14,5.68,6.18,1.76,2.3-2.88,3.37-4.76,4.22-12.11,5.44-24.38,10.17-38.22,7.99-2.83-.45-4.17-2.08-6.04-3.46,1.56-.95,3.02-2.19,4.7-2.81,12.07-4.42,24-9.32,38.64-12.12Z"/>
  <path class="cls-1" d="M949.62,1847.72c-4.4-1.46-7.79-3.95-8.95-8.73.38-.2.75-.4,1.13-.61-.47-.27-.94-.55-1.4-.82-.3-.92-.61-1.83-.91-2.75-.04-3.1.55-5.29,4.08-6.79,3.85-1.64,7.06-4.77,10.55-7.25,6.48-.37,5.06,8.28,10.45,9.15,1.46,3.89,2.91,7.78,4.37,11.67-.4.55-.81,1.11-1.21,1.66-1.59,3.14-4.44,3.15-7.46,3.31-3.55.19-7.3-.99-10.64,1.16Z"/>
  <path class="cls-1" d="M1544.95,1889.69c-10.32.16-20.81,2.16-30.68-2.71-3.98-1.97-9.71-4-9.16-8.53.58-4.79,6.92-4.82,11.06-5.39,9.66-1.32,18.05,2.58,25.91,7.8-2.53,4.07,3.2,5.47,2.86,8.83Z"/>
  <path class="cls-2" d="M219.05,1846.2c5.38-6.99,11.91-11.26,21.27-9.59,3.13.56,6.38.45,9.58.65-3.04,6.03-8.28,11.1-7.44,18.79.31,2.8-1.89,4.26-4.63,4.77-7.89,1.49-14.23-3.12-14.58-11.07-.14-3.2-1.74-3.63-4.21-3.56Z"/>
  <path class="cls-2" d="M490.67,1828.97c-.77,1.49-2.26,2.3-3.66,2.26-6.54-.22-11.4,3.72-16.77,6.4-1.9-6.34-4.25-12.46-7.61-18.24-.94-1.62-2.73-5.29-.92-5.9,3.68-1.24,6.89-6.1,11.96-1.83,5.75,4.83,10.74,10.2,15.17,16.18.4.54,1.21.76,1.84,1.13Z"/>
  <path class="cls-2" d="M1718.97,2058.15c1.67-2,3.69-.8,5.56-.56,4.69.59,7.88-.73,8.2-6.03,1.41.42,3.63.42,4.09,1.33,2.66,5.2,6.99,5.21,11.74,4.39,2.91-.5,4.42.87,5.71,3.43,1.17,2.34,2.71,4.96,4.82,6.24,3.14,1.9,4,4.92,3.34,7.41-.99,3.77-4.95,2.29-7.77,2.46-4.14.26-8.36-2.36-9.42-4.98-3.65-9.02-11.44-9.42-18.89-10.93-2.64-.53-5.26-.93-7.37-2.77Z"/>
  <path class="cls-2" d="M2300.54,1924.7c-6.48.95-12.25,3.59-17.62,7.25-1.59-1.33-1.06-2.65-.68-4.51,1.15-5.62-3.16-10.45-8.85-9.93-4.94.45-8.2-2.35-11.74-4.85,11.65.86,5.73-6.97,5.84-11.81,6.83,1.25,11.95,4.39,13.3,11.83.74,4.08,3.52,2.85,6.29,2.62,7.97-.67,12.69,2.8,13.45,9.42Z"/>
  <path class="cls-2" d="M954.11,1820.77c-3.49,2.48-6.7,5.61-10.55,7.25-3.53,1.51-4.13,3.69-4.08,6.79-1.86-5.27-6.25-7.73-11.12-7.07-7.55,1.02-12.86-2.04-17.77-6.93,1.66-.38,3.42-1.3,4.97-1.03,7.03,1.21,11.66-1.35,13.97-8.09,2.29,4.29,4.23,7.58,10.71,5.37,4.29-1.47,10.54-2.21,13.87,3.73Z"/>
  <path class="cls-2" d="M1497.1,1873.96c-6.65,2.91-12.64,2.45-18.84,1.14-6.96-1.47-10.54-5.12-9.32-10.48.84-3.67,8.5-6.84,13.15-4.36,5.94,3.16,12.35,6.35,15.01,13.7Z"/>
  <path class="cls-2" d="M1108.6,1856.76c.91-.28,2.07-1.08,2.68-.77,7.22,3.58,12.4,1.26,16.23-5.32,3.24,4.48,6.62,8.63,7.15,14.75.28,3.18-.45,2.87-2.6,3.36-11.25,2.55-17.49-4.43-23.47-12.02Z"/>
  <path class="cls-2" d="M2637.98,1930.32c8.56-6.61,16.94-3.98,25.24-.45,2.56,1.09,3.6,3.73,3.29,6.17-.4,3.12-3.39,2.37-5.43,2.23-8.29-.57-16.65-1.1-23.1-7.95Z"/>
  <path class="cls-2" d="M520.69,1862.9c6.46,1.44,12.92.53,19.38.05.56.74,1.4,1.41,1.63,2.24.97,3.5,5.19,7.14,1.37,10.61-3.55,3.22-12.66.22-15.62-4.16-2.06-3.05-4.5-5.84-6.77-8.74Z"/>
  <path class="cls-2" d="M337.47,1822.98c2.12-2.41,4.97-2.4,7.52-1.53,6.49,2.23,8.47-1.25,9.24-6.67,2.67,3.74,4.97,7.64,5.46,12.34.38,3.66-2.7,3.48-4.83,4.04-8.01,2.1-12.77-2.93-17.39-8.18Z"/>
  <path class="cls-2" d="M127.44,1891.56c4.15.47,8.28,1.11,11.89,3.39,4.48,2.83,8.68,4.47,13.01-.48,2.47-2.83,5.52-.26,8.3-.03,3.41,7.84,3.03,7.2-5.56,7.97-8.82.79-15.47-5.11-23.7-5.46-2.72-.11-4.02-2.57-3.94-5.4Z"/>
  <path class="cls-2" d="M1761.35,1902.94c-6.95,1.87-8.93-3.79-8.56-7.86.28-3.12,5.8-5.21,9.41-5.61,4.12-.45,7.18,3.09,6.86,7.11-.31,3.85-2.12,7.94-7.7,6.37Z"/>
  <path class="cls-2" d="M243.22,1815.15c.03,3.41-3.26,4-5.06,5.84-.82.83-2.71.97-3.06,1.85-4.87,12.17-14.61,8.06-23.4,7.15,9.59-6.9,20.03-11.98,31.52-14.84Z"/>
  <path class="cls-2" d="M607.4,1888.56c7.61,1.58,15.21,2.73,22.79-.16,3.08,7.39,2.49,8.5-4.82,9.04-12.35.93-14.01.11-17.97-8.88Z"/>
  <path class="cls-2" d="M968.93,1841.59c-1.46-3.89-2.91-7.78-4.37-11.67,1.57-1.84,3.14-3.68,4.71-5.53,2.76,2.03,5.55,3.86,8.89,5.07,2.35.86,5.77,2.2,4.55,6.24-6.4-2.28-8.4,5.75-13.78,5.88Z"/>
  <path class="cls-2" d="M592.51,1858.9c-1.11.38-2.38,1.31-3.32,1.05-7.02-1.97-9.35,1.96-10.3,7.83-2.88-2.23-5.78-4.43-8.64-6.7-1.44-1.14-1.35-2.35-.06-3.67,5.79-5.97,17.34-5.22,22.32,1.49Z"/>
  <path class="cls-2" d="M426.77,1849.26c7.92,1.77,15.84,2.73,23.78.1-.52,3.06.72,7.22-4.35,7.55-5.6.36-11.67,3.08-16.17-2.82-1.18-1.54-2.18-3.22-3.26-4.84Z"/>
  <path class="cls-2" d="M1648.47,1882.36c4.53,7.44,12.03,3.28,18.12,4.63-6.11,4.48-12.68,6.23-20.34,4.7-2.79-.56-5.03-1.43-5.34-3.86-.38-3.03,2.3-3.86,4.95-4.23.91-.13,1.74-.81,2.61-1.24Z"/>
  <path class="cls-2" d="M1048.59,1836.01c.64,5.59,5.13,6.49,9.37,7.7-4.88,6.01-11.29,3.15-16.99,2.39-2.72-.36-2.33-3.53-.67-5.71,2.09-2.73,5.15-3.64,8.29-4.37Z"/>
  <path class="cls-2" d="M2527.24,1968.62c-.54-3.97-2.09-7.33-5.72-9.42,3.8-2.19,7.84-2.54,11.92-1.11,2.3.81,5,2.17,4.99,4.75-.01,2.31-2.53,3.28-4.87,3.8-2.15.47-4.21,1.31-6.32,1.99Z"/>
  <path class="cls-2" d="M351.1,1793.91c.66,4.44,3.55,6.04,7.71,6.21,2.89.12,5.78.46,8.67.7-4.81,2.12-9.12,5.7-14.85,5.14-3.99-2.1-6.3-5.86-9.05-9.19,2.12-1.96,4.85-2.36,7.53-2.86Z"/>
  <path class="cls-2" d="M1729.54,1883.65c-.61-4.2,2.03-6.99,4.32-9.93,2.29-.06,4.42.45,6.05,2.13,2.16,2.22,3.41,5.37,2.41,7.93-.92,2.36-4.22,1.64-6.59,1.25-2.08-.34-4.12-.91-6.18-1.37Z"/>
  <path class="cls-2" d="M403.93,1817.85c7.31-1.65,8.86-.85,14.61,12.22-1.64-.89-3.32-2.61-4.92-2.53-7.03.33-8.83-4.1-9.69-9.69Z"/>
  <path class="cls-2" d="M988.47,1840.51c6.95-.06,13.89-.12,20.84-.18.26,4.95-2.48,6.59-6.87,5.79-5-.91-11.5,1.67-13.97-5.61Z"/>
  <path class="cls-2" d="M949.62,1847.72c3.35-2.15,7.09-.97,10.64-1.16,3.02-.16,5.86-.17,7.46-3.31,3.18,3.93-.11,5.17-2.83,6.01-5.22,1.61-10.47,1.76-15.27-1.54Z"/>
  <path class="cls-2" d="M204.26,1875.15c-1.2-4.56-6.11-8.97-.59-13.82-1.92,3.19,2.36,3.75,2.58,6.09.27,2.85,1.49,5.87-1.99,7.72Z"/>
  <path class="cls-2" d="M1544.95,1889.69c.34-3.36-5.4-4.76-2.86-8.83,5.22-.94,6.42,3.36,7.28,6.59.61,2.28-2.34,2.53-4.42,2.24Z"/>
  <path class="cls-2" d="M422.66,1840.22c4.12.47,2.48,4.39,3.89,6.48-3.1-1.07-4.08-3.42-3.89-6.48Z"/>
  <path class="cls-2" d="M2304.01,1931.92c-1.38.08-2.93.34-3.67-1.14-.76-1.5,0-2.61,1.5-3.23.72,1.45,1.45,2.91,2.17,4.36Z"/>
  <path class="cls-2" d="M2302.01,1951.56c-1.18.01-2.68.39-3.04-1.12-.11-.49,1.17-1.3,1.81-1.97,1.64.54,1.08,1.96,1.23,3.09Z"/>
  <path class="cls-2" d="M940.39,1837.56c.47.27.94.55,1.4.82-.38.2-.75.4-1.13.61-.09-.48-.18-.95-.27-1.43Z"/>
  <path class="cls-2" d="M340.49,1798.17c-.98.48-1.41.07-1.48-.91.49.3.99.61,1.48.91Z"/>
  <g>
    <path class="cls-2" d="M1456.99,1834.18c0-2.34,3.9-2.58,5.2-4.37.96-1.33,4.59-1.04,2.84-3.94-1.14-1.9-1.68-4.73-4.98-4.5-2.23.15-4.68-.62-6.69.05-11.1,3.65-22.18,7.42-31.43,15.04-3.43,2.82-1.19,6.31.65,6.6,3.31.52,6.57,1.6,10.11,1.66,7.32.14,12.07-5.25,18.35-7.11,1.35-2.57,3.86-4.39,5.95-3.42Z"/>
    <path class="cls-2" d="M1473.61,1840.52c-1.9-3.62-4.46-7.17-9.94-5.64-1.58.44-3.81,2.39-5.34,1.7-.74,1.17-3.33,2.08-3.63,3.73-.74,6.44,2.81,12.13,9.38,13.37,4.86.92,11.43,3.89,14.54-.34,3.17-4.3-2.83-8.67-5.01-12.83Z"/>
  </g>
</svg>