<?xml version="1.0" encoding="UTF-8"?>
<svg id="Layer_2" data-name="Layer 2" xmlns="http://www.w3.org/2000/svg" viewBox="0 0 981.17 222.54">
  <defs>
    <style>
      .cls-1 {
        fill: #dbdfd8;
      }
    </style>
  </defs>
  <g id="_4-bg" data-name="4-bg">
    <g>
      <path class="cls-1" d="m39.4,34.62v33.67h74.98v34.39H39.4v57.31H0V0h123.69v34.62H39.4Z"/>
      <path class="cls-1" d="m287.02,159.99h-47.52l-48.24-54.92h-11.46v54.92h-39.4V0h80.95c17.35,0,31.28,4.82,41.79,14.45,10.51,9.63,15.76,22.25,15.76,37.85,0,13.06-3.74,24.08-11.22,33.07-7.49,9-17.75,14.92-30.8,17.79l50.15,56.83Zm-107.22-87.88h37.25c7,0,12.62-1.75,16.83-5.25,4.22-3.5,6.33-8.2,6.33-14.09s-2.11-10.35-6.33-13.85c-4.22-3.5-9.83-5.25-16.83-5.25h-37.25v38.44Z"/>
      <path class="cls-1" d="m462.05,159.99h-42.03l-11.22-29.13h-67.34l-11.22,29.13h-42.27L354.83,0h40.36l66.86,159.99Zm-66.38-63.04l-20.54-52.53-20.3,52.53h40.83Z"/>
      <path class="cls-1" d="m658.09,0v159.99h-38.21v-79.76l-41.79,79.76h-24.36l-42.03-80.23v80.23h-38.21V0h38.68l53.73,99.1L619.65,0h38.45Z"/>
      <path class="cls-1" d="m808.05,126.08v33.91h-124.65V0h123.93v33.91h-84.53v30.09h77.61v32h-77.61v30.09h85.25Z"/>
      <path class="cls-1" d="m830.26,0h63.28c26.27,0,47.44,7.37,63.52,22.09,16.08,14.73,24.12,34.03,24.12,57.91s-8.04,43.18-24.12,57.91c-16.08,14.73-37.25,22.09-63.52,22.09h-63.28V0Zm39.4,125.84h22.45c14.96,0,26.94-4.18,35.94-12.54,8.99-8.36,13.49-19.46,13.49-33.31s-4.5-24.95-13.49-33.31c-9-8.36-20.98-12.54-35.94-12.54h-22.45v91.7Z"/>
    </g>
    <g>
      <path class="cls-1" d="m155.23,183.62c4.08,0,7.49.95,10.23,2.86,2.74,1.91,4.47,4.55,5.17,7.92l-9.01,1.83c-.33-1.67-1.11-2.96-2.33-3.86-1.22-.91-2.61-1.36-4.17-1.36s-2.69.36-3.61,1.08c-.93.72-1.39,1.62-1.39,2.7,0,1.63,1,2.67,3,3.11l7.73,1.72c6.82,1.52,10.23,5.13,10.23,10.84,0,3.82-1.46,6.78-4.39,8.89s-6.58,3.17-10.95,3.17-8.01-.99-11.03-2.97c-3.02-1.98-4.77-4.75-5.25-8.31l9.45-1.83c.89,3.67,3.34,5.5,7.34,5.5,1.71,0,3.05-.35,4.03-1.06.98-.7,1.47-1.63,1.47-2.78,0-.89-.25-1.59-.75-2.11-.5-.52-1.4-.91-2.7-1.17l-7.78-1.67c-6.67-1.52-10.01-5.11-10.01-10.78,0-3.59,1.35-6.45,4.06-8.56s6.26-3.17,10.67-3.17Z"/>
      <path class="cls-1" d="m201.65,205.81l9.01,1.95c-.85,4.6-2.98,8.21-6.39,10.84-3.41,2.63-7.54,3.95-12.4,3.95-5.52,0-10.2-1.87-14.04-5.62-3.84-3.74-5.75-8.36-5.75-13.84s1.92-10.05,5.75-13.81c3.84-3.76,8.51-5.64,14.04-5.64,4.67,0,8.74,1.3,12.2,3.89,3.46,2.59,5.64,6.06,6.53,10.4l-9.01,2.28c-.56-2.71-1.7-4.74-3.42-6.12-1.72-1.37-3.83-2.06-6.31-2.06-2.97,0-5.48,1.06-7.53,3.17s-3.08,4.74-3.08,7.89,1.03,5.79,3.08,7.92c2.06,2.13,4.57,3.2,7.53,3.2,2.45,0,4.53-.7,6.25-2.11,1.72-1.41,2.9-3.5,3.53-6.28Z"/>
      <path class="cls-1" d="m247.18,221.7h-11.06l-11.23-12.79h-2.67v12.79h-9.17v-37.25h18.84c4.04,0,7.28,1.12,9.73,3.36,2.45,2.24,3.67,5.18,3.67,8.81,0,3.04-.87,5.61-2.61,7.7-1.74,2.09-4.13,3.47-7.17,4.14l11.67,13.23Zm-24.96-20.46h8.67c1.63,0,2.94-.41,3.92-1.22.98-.81,1.47-1.91,1.47-3.28s-.49-2.41-1.47-3.22c-.98-.81-2.29-1.22-3.92-1.22h-8.67v8.95Z"/>
      <path class="cls-1" d="m277.03,213.81v7.89h-29.02v-37.25h28.85v7.89h-19.68v7h18.07v7.45h-18.07v7h19.85Z"/>
      <path class="cls-1" d="m308.99,213.81v7.89h-29.02v-37.25h28.85v7.89h-19.68v7h18.07v7.45h-18.07v7h19.85Z"/>
      <path class="cls-1" d="m347.52,184.46v37.25h-7.56l-18.85-21.57v21.57h-9.17v-37.25h7.62l18.85,22.24v-22.24h9.12Z"/>
      <path class="cls-1" d="m365.86,183.62c4.08,0,7.49.95,10.23,2.86,2.74,1.91,4.47,4.55,5.17,7.92l-9.01,1.83c-.33-1.67-1.11-2.96-2.33-3.86-1.22-.91-2.61-1.36-4.17-1.36s-2.69.36-3.61,1.08c-.93.72-1.39,1.62-1.39,2.7,0,1.63,1,2.67,3,3.11l7.73,1.72c6.82,1.52,10.23,5.13,10.23,10.84,0,3.82-1.46,6.78-4.39,8.89s-6.58,3.17-10.95,3.17-8.01-.99-11.03-2.97c-3.02-1.98-4.77-4.75-5.25-8.31l9.45-1.83c.89,3.67,3.34,5.5,7.34,5.5,1.71,0,3.05-.35,4.03-1.06.98-.7,1.47-1.63,1.47-2.78,0-.89-.25-1.59-.75-2.11-.5-.52-1.4-.91-2.7-1.17l-7.78-1.67c-6.67-1.52-10.01-5.11-10.01-10.78,0-3.59,1.35-6.45,4.06-8.56s6.26-3.17,10.67-3.17Z"/>
      <path class="cls-1" d="m418.34,184.46v37.25h-9.12v-14.73h-15.68v14.73h-9.17v-37.25h9.17v14.51h15.68v-14.51h9.12Z"/>
      <path class="cls-1" d="m426.54,189.29c3.84-3.78,8.53-5.67,14.09-5.67s10.26,1.89,14.09,5.67,5.75,8.39,5.75,13.84-1.92,10-5.75,13.76c-3.84,3.76-8.53,5.64-14.09,5.64s-10.26-1.88-14.09-5.64c-3.84-3.76-5.75-8.35-5.75-13.76s1.92-10.06,5.75-13.84Zm6.48,21.71c2.04,2.09,4.58,3.14,7.62,3.14s5.58-1.05,7.62-3.14,3.06-4.72,3.06-7.87-1.02-5.84-3.06-7.95-4.58-3.17-7.62-3.17-5.58,1.06-7.62,3.17c-2.04,2.11-3.06,4.76-3.06,7.95s1.02,5.77,3.06,7.87Z"/>
      <path class="cls-1" d="m492.5,192.46h-12.06v29.24h-9.12v-29.24h-12.06v-8h33.24v8Z"/>
      <path class="cls-1" d="m532.46,205.81l9.01,1.95c-.85,4.6-2.98,8.21-6.39,10.84-3.41,2.63-7.54,3.95-12.4,3.95-5.52,0-10.2-1.87-14.04-5.62-3.84-3.74-5.75-8.36-5.75-13.84s1.92-10.05,5.75-13.81c3.84-3.76,8.51-5.64,14.04-5.64,4.67,0,8.74,1.3,12.2,3.89,3.46,2.59,5.64,6.06,6.53,10.4l-9.01,2.28c-.56-2.71-1.7-4.74-3.42-6.12-1.72-1.37-3.83-2.06-6.31-2.06-2.97,0-5.48,1.06-7.53,3.17s-3.08,4.74-3.08,7.89,1.03,5.79,3.08,7.92c2.06,2.13,4.57,3.2,7.53,3.2,2.45,0,4.53-.7,6.25-2.11,1.72-1.41,2.9-3.5,3.53-6.28Z"/>
      <path class="cls-1" d="m548.33,189.29c3.84-3.78,8.53-5.67,14.09-5.67s10.26,1.89,14.09,5.67,5.75,8.39,5.75,13.84-1.92,10-5.75,13.76c-3.84,3.76-8.53,5.64-14.09,5.64s-10.26-1.88-14.09-5.64c-3.84-3.76-5.75-8.35-5.75-13.76s1.92-10.06,5.75-13.84Zm6.48,21.71c2.04,2.09,4.58,3.14,7.62,3.14s5.58-1.05,7.62-3.14,3.06-4.72,3.06-7.87-1.02-5.84-3.06-7.95-4.58-3.17-7.62-3.17-5.58,1.06-7.62,3.17c-2.04,2.11-3.06,4.76-3.06,7.95s1.02,5.77,3.06,7.87Z"/>
      <path class="cls-1" d="m627.63,184.46v37.25h-8.89v-18.57l-9.73,18.57h-5.67l-9.78-18.68v18.68h-8.89v-37.25h9l12.51,23.07,12.51-23.07h8.95Z"/>
      <path class="cls-1" d="m674.27,184.46v37.25h-8.89v-18.57l-9.73,18.57h-5.67l-9.78-18.68v18.68h-8.89v-37.25h9l12.51,23.07,12.51-23.07h8.95Z"/>
      <path class="cls-1" d="m711.24,184.46v20.46c0,5.34-1.51,9.61-4.53,12.81-3.02,3.21-7.01,4.81-11.98,4.81s-9.16-1.6-12.26-4.81c-3.09-3.21-4.64-7.48-4.64-12.81v-20.46h9.17v20.46c0,2.82.7,5.05,2.11,6.7,1.41,1.65,3.28,2.47,5.62,2.47s4-.82,5.34-2.47c1.33-1.65,2-3.88,2-6.7v-20.46h9.17Z"/>
      <path class="cls-1" d="m750.38,184.46v37.25h-7.56l-18.85-21.57v21.57h-9.17v-37.25h7.62l18.85,22.24v-22.24h9.12Z"/>
      <path class="cls-1" d="m768.17,192.46v21.24h7.06v8h-23.24v-8h7.06v-21.24h-7.06v-8h23.24v8h-7.06Z"/>
      <path class="cls-1" d="m807.91,192.46h-12.06v29.24h-9.12v-29.24h-12.06v-8h33.24v8Z"/>
      <path class="cls-1" d="m830.37,210.03v11.67h-9.34v-11.56l-14.4-25.68h10.01l9.17,16.34,9.06-16.34h10.23l-14.73,25.57Z"/>
    </g>
  </g>
</svg>