<?xml version="1.0" encoding="UTF-8"?>
<svg id="Layer_2" data-name="Layer 2" xmlns="http://www.w3.org/2000/svg" viewBox="0 0 1000 334.72">
  <defs>
    <style>
      .cls-1 {
        fill: #dbdfd8;
      }
    </style>
  </defs>
  <g id="_3-fg" data-name="3-fg">
    <g>
      <g>
        <path class="cls-1" d="m86.97,169.05v30.82h68.64v31.48h-68.64v52.46h-36.07v-146.46h113.23v31.7h-77.16Z"/>
        <path class="cls-1" d="m313.65,283.82h-43.5l-44.16-50.28h-10.49v50.28h-36.07v-146.46h74.1c15.88,0,28.64,4.41,38.25,13.22,9.62,8.82,14.43,20.37,14.43,34.65,0,11.95-3.43,22.04-10.27,30.28-6.85,8.24-16.25,13.66-28.2,16.29l45.9,52.03Zm-98.15-80.44h34.1c6.41,0,11.55-1.6,15.41-4.81,3.86-3.2,5.79-7.5,5.79-12.9s-1.93-9.47-5.79-12.68c-3.86-3.2-9-4.81-15.41-4.81h-34.1v35.19Z"/>
        <path class="cls-1" d="m473.88,283.82h-38.47l-10.27-26.67h-61.64l-10.27,26.67h-38.69l61.21-146.46h36.94l61.21,146.46Zm-60.77-57.71l-18.8-48.09-18.58,48.09h37.38Z"/>
        <path class="cls-1" d="m653.34,137.36v146.46h-34.97v-73.01l-38.25,73.01h-22.3l-38.47-73.45v73.45h-34.98v-146.46h35.41l49.18,90.72,49.18-90.72h35.19Z"/>
        <path class="cls-1" d="m790.62,252.78v31.04h-114.11v-146.46h113.45v31.04h-77.38v27.54h71.04v29.29h-71.04v27.54h78.04Z"/>
        <path class="cls-1" d="m810.94,137.36h57.93c24.05,0,43.43,6.74,58.15,20.22,14.72,13.48,22.08,31.15,22.08,53.01s-7.36,39.53-22.08,53.01c-14.72,13.48-34.1,20.22-58.15,20.22h-57.93v-146.46Zm36.07,115.2h20.55c13.7,0,24.66-3.83,32.9-11.48,8.23-7.65,12.35-17.82,12.35-30.49s-4.12-22.84-12.35-30.49c-8.23-7.65-19.2-11.48-32.9-11.48h-20.55v83.94Z"/>
      </g>
      <g>
        <path class="cls-1" d="m233.4,52.22v58.6h-14.34v-23.18h-24.66v23.18h-14.43v-58.6h14.43v22.83h24.66v-22.83h14.34Z"/>
        <path class="cls-1" d="m341.32,110.81h-15.39l-4.11-10.67h-24.66l-4.11,10.67h-15.48l24.49-58.6h14.78l24.49,58.6Zm-24.31-23.09l-7.52-19.24-7.43,19.24h14.95Z"/>
        <path class="cls-1" d="m428.68,98.22v12.59h-43.29v-58.6h14.43v46h28.86Z"/>
        <path class="cls-1" d="m519.02,98.22v12.59h-43.29v-58.6h14.43v46h28.86Z"/>
        <path class="cls-1" d="m674.21,59.83c6.03-5.95,13.42-8.92,22.17-8.92s16.14,2.97,22.17,8.92c6.03,5.95,9.05,13.21,9.05,21.78s-3.02,15.73-9.05,21.65c-6.03,5.92-13.42,8.88-22.17,8.88s-16.14-2.96-22.17-8.88c-6.03-5.92-9.05-13.13-9.05-21.65s3.02-15.83,9.05-21.78Zm10.19,34.15c3.21,3.29,7.2,4.94,11.98,4.94s8.77-1.65,11.98-4.94c3.21-3.29,4.81-7.42,4.81-12.38s-1.6-9.18-4.81-12.51c-3.21-3.32-7.2-4.98-11.98-4.98s-8.78,1.66-11.98,4.98c-3.21,3.32-4.81,7.49-4.81,12.51s1.6,9.08,4.81,12.38Z"/>
        <path class="cls-1" d="m789.17,64.9v12.33h27.46v12.59h-27.46v20.99h-14.43v-58.6h45.3v12.68h-30.87Z"/>
      </g>
      <path class="cls-1" d="m1000,334.72H0V0h1000v334.72ZM25.45,309.27h949.09V25.45H25.45v283.82Z"/>
    </g>
  </g>
</svg>